<svg xmlns="http://www.w3.org/2000/svg" width="126.095" height="124.356" viewBox="0 0 126.095 124.356"><g transform="translate(-112.444 -99.115)"><g transform="translate(121.015 99.328)"><g transform="translate(0 0)"><path d="M209.947,206.793c-4.531-6.943-70.858-94.27-80.8-106.257a2.443,2.443,0,0,0-3.64-.536c-1.069,1.054-1.71,2.592.528,11.809,1.341,5.522,11.809,36.308,15.376,45.154,7.258,17.994,11.9,17.4,14.565,17.743a5.211,5.211,0,0,0,3.657-.884c2.976-2.031,3.969-2.623,5.119-3.31.4-.24.834-.5,1.373-.829,3.217,5.272,7.189,13.451,11.046,21.391,5.189,10.685,10.555,21.734,14.843,27.452,2.727,3.634,5.675,4.7,7.67,4.96a11.14,11.14,0,0,0,10.264-16.693Zm-4.259,8.937a5.8,5.8,0,0,1-5.392,3.006,7,7,0,0,1-4.45-3.084c-4.012-5.349-9.276-16.188-14.367-26.671-4.651-9.576-9.043-18.621-12.637-23.935a2.392,2.392,0,0,0-3.281-.669c-1.607,1.037-5.528,3.376-8.626,5.49a.432.432,0,0,1-.347.091c-1.642.85-1.746-.4-4.517-4.159-4.464-6.057-17.066-41.639-20.711-53.326-1.414-4.532.092-2.033,1.2-.608,11.975,15.406,68.977,90.8,73.378,97.545A5.891,5.891,0,0,1,205.688,215.73Z" transform="translate(-124.53 -99.415)" fill="#23d16a"/></g></g><g transform="translate(175.428 99.115)"><path d="M263.695,123.531a2.392,2.392,0,0,0-3.384-.05c-6.109,5.927-11.808,11.707-16.386,16.351q-1.754,1.781-3.211,3.253l-4.514-4.517,19.074-18.508a2.393,2.393,0,0,0-3.334-3.435l-19.125,18.557-4.249-4.253,19.189-18.618a2.393,2.393,0,0,0-3.333-3.435l-19.239,18.667-4.139-4.143,20.791-20.174a2.393,2.393,0,0,0-3.333-3.434l-23.927,23.217c-6.115,5.933-5.643,14.646,1.02,22.683l-13.608,13.4a2.393,2.393,0,0,0,3.334,3.434l13.618-13.413a19.35,19.35,0,0,0,9.182,4.263c.428.072.862.128,1.295.167,4.346.4,8.329-.811,10.93-3.334,1.661-1.611,4.012-4,6.99-7.016,4.562-4.627,10.239-10.386,16.311-16.276A2.4,2.4,0,0,0,263.695,123.531Zm-26.686,23.243a9.146,9.146,0,0,1-7.153,2,14.639,14.639,0,0,1-9.086-4.478c-4.893-5.044-8.225-12.254-3.155-17.557l19.709,19.725Z" transform="translate(-201.258 -99.115)" fill="#23d16a"/></g><g transform="translate(112.444 176.52)"><path d="M165.34,212.643a2.393,2.393,0,0,0-3.379.2c-9.631,10.837-27.109,29.981-33.007,35.211-2.932,2.6-7.55,1.552-10.023-1.061-2.586-2.732-2.2-6.191,1.07-9.494,8.294-8.382,20.512-17.979,29.727-24.929a2.394,2.394,0,1,0-2.882-3.822c-9.334,7.039-21.735,16.781-30.248,25.384-6.2,6.267-4.49,12.617-1.143,16.152a13.393,13.393,0,0,0,7.415,3.905,10.964,10.964,0,0,0,9.26-2.556c6.815-6.044,26.428-27.758,33.409-35.613A2.391,2.391,0,0,0,165.34,212.643Z" transform="translate(-112.444 -208.265)" fill="#23d16a"/></g></g></svg>