<svg id="Group_117" data-name="Group 117" xmlns="http://www.w3.org/2000/svg" width="139.8" height="139.766" viewBox="0 0 139.8 139.766">
  <defs>
    <style>
      .cls-1 {
        fill: #fff;
      }
    </style>
  </defs>
  <g id="Group_114" data-name="Group 114" transform="translate(0)">
    <g id="Group_113" data-name="Group 113">
      <path id="Path_394" data-name="Path 394" class="cls-1" d="M132.8,191.027v.451a2.13,2.13,0,0,0,2.255,2.254H270.767a2.472,2.472,0,0,0,1.8-2.705l-5.861-31.786A29.094,29.094,0,0,0,243.941,135.8l-25.022-5.185h-.451v-14.2A26.812,26.812,0,0,0,229.74,94.544V81.019a27.051,27.051,0,1,0-54.1,0V94.544a27.127,27.127,0,0,0,11.271,21.867v14.2h-.451l-25.023,5.41a29.094,29.094,0,0,0-22.769,23.445ZM224.78,76.51H180.6a22.549,22.549,0,0,1,44.184,0Zm-.451,4.509-6.763,6.762H187.81l-6.763-6.762Zm-21.641,36.068a22.609,22.609,0,0,1-22.543-22.543V86.429l5.185,5.185a2.047,2.047,0,0,0,1.578.676h31.56a2.047,2.047,0,0,0,1.578-.676l5.185-5.185v8.115A22.609,22.609,0,0,1,202.688,117.087Zm0,4.509a28.232,28.232,0,0,0,11.272-2.48v15.1l-1.579,1.578a12.62,12.62,0,0,1-9.468,4.058h-.451a13.917,13.917,0,0,1-9.468-4.058l-1.578-1.578v-15.1A28.226,28.226,0,0,0,202.688,121.6Zm20.289,14.653v7.213l-11.948,15.78-1.127-1.127a11.115,11.115,0,0,0-15.78,1.127l-11.947-15.78v-7.213l3.832-.9,3.607,3.607a18.255,18.255,0,0,0,12.849,5.185h.451a17.871,17.871,0,0,0,12.849-5.185l3.381-3.607,3.833.9ZM200.434,175.7v4.508h-4.509V166.681a6.763,6.763,0,1,1,6.763,6.763A2.13,2.13,0,0,0,200.434,175.7Zm38.323,9.017h27.953l.9,4.508H238.757v-4.508Zm-67.629-24.572H166.62v20.289H139.342l3.607-20.063a24.781,24.781,0,0,1,19.387-19.838l15.554-3.381v6.989a3.21,3.21,0,0,0,.451,1.352l13.526,18.034a13.3,13.3,0,0,0-.451,3.156v15.78a2.13,2.13,0,0,0,2.254,2.255h9.017a2.13,2.13,0,0,0,2.254-2.255v-4.734a11.339,11.339,0,0,0,9.018-11.046,13.3,13.3,0,0,0-.451-3.156l13.526-18.034a3.2,3.2,0,0,0,.451-1.352v-7.214l15.555,3.381a24.781,24.781,0,0,1,19.386,19.838l3.607,20.063H238.757V159.919h-4.509V189.45h-63.12Zm-33.363,29.08.9-4.508H166.62v4.508Z" transform="translate(-132.805 -53.967)"/>
    </g>
  </g>
  <g id="Group_116" data-name="Group 116" transform="translate(67.629 110.46)">
    <g id="Group_115" data-name="Group 115">
      <rect id="Rectangle_51" data-name="Rectangle 51" class="cls-1" width="4.509" height="4.509"/>
    </g>
  </g>
</svg>
