<svg xmlns="http://www.w3.org/2000/svg" width="121.77" height="121.74" viewBox="0 0 121.77 121.74">
  <defs>
    <style>
      .cls-1 {
        fill: #23d16a;
      }
    </style>
  </defs>
  <g id="Group_108" data-name="Group 108" transform="translate(1632.922 -938.238)">
    <g id="Group_105" data-name="Group 105" transform="translate(-1632.922 938.238)">
      <g id="Group_104" data-name="Group 104" transform="translate(0 0)">
        <path id="Path_122" data-name="Path 122" class="cls-1" d="M-1632.922,1057.621v.393a1.855,1.855,0,0,0,1.963,1.964h118.205a2.154,2.154,0,0,0,1.571-2.356l-5.105-27.686a25.341,25.341,0,0,0-19.832-20.421l-21.8-4.516h-.393v-12.37a23.354,23.354,0,0,0,9.818-19.046V961.8a23.632,23.632,0,0,0-23.562-23.562,23.632,23.632,0,0,0-23.562,23.563v11.781a23.628,23.628,0,0,0,9.818,19.046V1005h-.393l-21.8,4.713a25.341,25.341,0,0,0-19.832,20.421Zm80.112-99.748h-38.485a19.556,19.556,0,0,1,19.243-15.708A19.556,19.556,0,0,1-1552.81,957.873Zm-.393,3.927-5.891,5.891h-25.918l-5.891-5.891Zm-18.85,31.417a19.693,19.693,0,0,1-19.635-19.635v-7.069l4.516,4.516a1.782,1.782,0,0,0,1.374.589h27.49a1.782,1.782,0,0,0,1.375-.589l4.516-4.516v7.069A19.693,19.693,0,0,1-1572.052,993.217Zm0,3.927a24.586,24.586,0,0,0,9.818-2.16v13.156l-1.375,1.375a10.991,10.991,0,0,1-8.247,3.534h-.393a12.124,12.124,0,0,1-8.247-3.534l-1.374-1.375V994.984A24.586,24.586,0,0,0-1572.052,997.144Zm17.672,12.763v6.283l-10.407,13.745-.982-.982a9.681,9.681,0,0,0-13.745.982l-10.406-13.745v-6.283l3.338-.785,3.142,3.142a15.9,15.9,0,0,0,11.192,4.516h.393a15.566,15.566,0,0,0,11.192-4.516l2.945-3.142,3.338.785Zm-19.635,34.362v3.927h-3.927v-11.781a5.785,5.785,0,0,1,5.891-5.891,5.785,5.785,0,0,1,5.891,5.891,5.786,5.786,0,0,1-5.891,5.891A1.855,1.855,0,0,0-1574.016,1044.269Zm33.38,7.854h24.348l.786,3.927h-25.134Zm-58.906-21.4h-3.927v17.672h-23.759l3.142-17.476a21.585,21.585,0,0,1,16.886-17.279l13.549-2.945v6.087a2.791,2.791,0,0,0,.393,1.178l11.781,15.708a11.592,11.592,0,0,0-.393,2.749v13.745a1.855,1.855,0,0,0,1.963,1.964h7.854a1.855,1.855,0,0,0,1.963-1.964v-4.124a9.876,9.876,0,0,0,7.854-9.621,11.592,11.592,0,0,0-.393-2.749l11.781-15.708a2.791,2.791,0,0,0,.393-1.178V1010.5l13.549,2.945a21.585,21.585,0,0,1,16.886,17.279l3.142,17.475h-23.759v-17.672h-3.927v25.722h-54.979Zm-29.061,25.33.785-3.927h24.348v3.927Z" transform="translate(1632.922 -938.238)"/>
      </g>
    </g>
    <g id="Group_107" data-name="Group 107" transform="translate(-1573.785 1034.657)">
      <g id="Group_106" data-name="Group 106" transform="translate(0 0)">
        <rect id="Rectangle_46" data-name="Rectangle 46" class="cls-1" width="4" height="4" transform="translate(-0.086 -0.419)"/>
      </g>
    </g>
  </g>
</svg>
