<svg xmlns="http://www.w3.org/2000/svg" width="123" height="94.3" viewBox="0 0 123 94.3">
  <defs>
    <style>
      .cls-1 {
        fill: #23d16a;
      }
    </style>
  </defs>
  <g id="Group_90" data-name="Group 90" transform="translate(2250.142 -1030.771)">
    <path id="Path_103" data-name="Path 103" class="cls-1" d="M-2133.292,1030.771h-110.7a6.15,6.15,0,0,0-6.15,6.15v73.8a6.149,6.149,0,0,0,4.1,5.772v4.477a4.1,4.1,0,0,0,4.1,4.1h6.15a4.1,4.1,0,0,0,4.1-4.1v-4.1h86.1v4.1a4.1,4.1,0,0,0,4.1,4.1h6.15a4.1,4.1,0,0,0,4.1-4.1v-4.477a6.149,6.149,0,0,0,4.1-5.772v-73.8A6.15,6.15,0,0,0-2133.292,1030.771Zm-112.75,12.3h77.9v61.5h-77.9Zm4.1,77.9v-4.1h6.15v4.1Zm100.45,0v-4.1h6.15v4.1Zm10.25-10.249a2.05,2.05,0,0,1-2.05,2.049h-110.7a2.05,2.05,0,0,1-2.051-2.049v-2.05h114.8Zm0-6.151h-32.8v-32.8h32.8Zm0-36.9h-32.8v-24.6h32.8Zm0-28.7h-114.8v-2.05a2.05,2.05,0,0,1,2.051-2.05h110.7a2.05,2.05,0,0,1,2.05,2.05Z"/>
    <path id="Path_104" data-name="Path 104" class="cls-1" d="M-1872.627,1115.438h20.5a2.051,2.051,0,0,0,2.05-2.05v-12.3a2.05,2.05,0,0,0-2.05-2.05h-20.5a2.051,2.051,0,0,0-2.051,2.05v12.3A2.051,2.051,0,0,0-1872.627,1115.438Zm2.05-12.3h16.4v8.2h-16.4Z" transform="translate(-285.265 -51.866)"/>
    <path id="Path_105" data-name="Path 105" class="cls-1" d="M-1866.142,1227.037h4.1v4.1h-4.1Z" transform="translate(-291.75 -149.116)"/>
    <path id="Path_106" data-name="Path 106" class="cls-1" d="M-1832.01,1218.505h4.1v4.1h-4.1Z" transform="translate(-317.682 -142.634)"/>
    <path id="Path_107" data-name="Path 107" class="cls-1" d="M-1797.877,1227.037h4.1v4.1h-4.1Z" transform="translate(-343.616 -149.116)"/>
    <path id="Path_108" data-name="Path 108" class="cls-1" d="M-1849.407,1269.038a8.2,8.2,0,0,0,8.2-8.2,8.2,8.2,0,0,0-8.2-8.2,8.2,8.2,0,0,0-8.2,8.2A8.2,8.2,0,0,0-1849.407,1269.038Zm0-12.3a4.1,4.1,0,0,1,4.1,4.1,4.1,4.1,0,0,1-4.1,4.1,4.1,4.1,0,0,1-4.1-4.1A4.1,4.1,0,0,1-1849.407,1256.738Z" transform="translate(-298.235 -168.567)"/>
    <path id="Path_109" data-name="Path 109" class="cls-1" d="M-1940.893,1167.306a2.05,2.05,0,0,0-2.05,2.049v16.4a2.05,2.05,0,0,0,2.05,2.05,2.05,2.05,0,0,0,2.049-2.05v-16.4A2.05,2.05,0,0,0-1940.893,1167.306Z" transform="translate(-233.399 -103.735)"/>
    <path id="Path_110" data-name="Path 110" class="cls-1" d="M-2043.958,1196.991a13.846,13.846,0,0,1-7.286-1.835,17.931,17.931,0,0,0-9.115-2.265,2.05,2.05,0,0,0-2.05,2.05,2.05,2.05,0,0,0,2.05,2.049,13.854,13.854,0,0,1,7.286,1.835,17.922,17.922,0,0,0,9.115,2.266,2.05,2.05,0,0,0,2.049-2.05A2.05,2.05,0,0,0-2043.958,1196.991Z" transform="translate(-142.634 -123.17)"/>
    <path id="Path_111" data-name="Path 111" class="cls-1" d="M-2196.893,1196.99a13.835,13.835,0,0,1,7.279,1.835,17.893,17.893,0,0,0,9.12,2.265,17.912,17.912,0,0,0,9.11-2.255,2.051,2.051,0,0,0,.919-2.75,2.052,2.052,0,0,0-2.751-.919,13.847,13.847,0,0,1-7.278,1.824,13.831,13.831,0,0,1-7.279-1.835,17.907,17.907,0,0,0-9.12-2.265,2.05,2.05,0,0,0-2.051,2.05A2.05,2.05,0,0,0-2196.893,1196.99Z" transform="translate(-38.899 -123.169)"/>
    <path id="Path_112" data-name="Path 112" class="cls-1" d="M-2005.062,1259.792a15.479,15.479,0,0,1-3.625-.379,2.05,2.05,0,0,0-2.47,1.519,2.05,2.05,0,0,0,1.519,2.47,19.509,19.509,0,0,0,4.576.49,2.05,2.05,0,0,0,2.049-2.05A2.05,2.05,0,0,0-2005.062,1259.792Z" transform="translate(-181.53 -173.671)"/>
    <path id="Path_113" data-name="Path 113" class="cls-1" d="M-2157.17,1245.332a17.661,17.661,0,0,0-6.923-1.244,17.938,17.938,0,0,0-9.119,2.255,13.844,13.844,0,0,1-7.281,1.845,13.829,13.829,0,0,1-7.279-1.845,17.906,17.906,0,0,0-9.12-2.255,2.05,2.05,0,0,0-2.051,2.05,2.05,2.05,0,0,0,2.051,2.049,13.838,13.838,0,0,1,7.279,1.845,17.9,17.9,0,0,0,9.12,2.255,17.922,17.922,0,0,0,9.119-2.255,13.862,13.862,0,0,1,7.281-1.845,13.419,13.419,0,0,1,5.382.946,2.052,2.052,0,0,0,2.673-1.128,2.052,2.052,0,0,0-1.127-2.674Z" transform="translate(-38.899 -162.067)"/>
    <path id="Path_114" data-name="Path 114" class="cls-1" d="M-2089.33,1145.791a13.856,13.856,0,0,1-7.286-1.835,17.922,17.922,0,0,0-9.115-2.265,17.917,17.917,0,0,0-9.119,2.265,13.875,13.875,0,0,1-5.432,1.748,2.051,2.051,0,0,0-1.835,2.245,2.05,2.05,0,0,0,2.245,1.835,17.894,17.894,0,0,0,6.85-2.148,13.882,13.882,0,0,1,7.291-1.845,13.855,13.855,0,0,1,7.286,1.835,17.918,17.918,0,0,0,9.115,2.265,2.05,2.05,0,0,0,2.049-2.049A2.05,2.05,0,0,0-2089.33,1145.791Z" transform="translate(-97.262 -84.27)"/>
    <path id="Path_115" data-name="Path 115" class="cls-1" d="M-2196.893,1145.791a13.856,13.856,0,0,1,7.281,1.835c.706.353,1.415.706,2.2,1.025a2.087,2.087,0,0,0,.771.15,2.05,2.05,0,0,0,2.052-2.048,2.05,2.05,0,0,0-1.281-1.9c-.678-.274-1.292-.584-1.907-.891a17.908,17.908,0,0,0-9.114-2.267,2.05,2.05,0,0,0-2.051,2.05A2.05,2.05,0,0,0-2196.893,1145.791Z" transform="translate(-38.899 -84.27)"/>
  </g>
</svg>
