<svg xmlns="http://www.w3.org/2000/svg" width="75.298" height="70.481" viewBox="0 0 75.298 70.481"><g transform="translate(-1509.479 -587.198)"><path d="M1583.525,602.025l-.043-.241a115.709,115.709,0,0,0-21.229,9.445l-.958.546-.459-1a142.453,142.453,0,0,0-13.713-23.574,143.263,143.263,0,0,0-13.718,23.567l-.459,1-.957-.544a115.757,115.757,0,0,0-21.253-9.449q-.07.484-.141.964c-.243,1.665-.472,3.237-.668,4.84-.14,1.149-.234,2.334-.324,3.48-.041.512-.081,1.025-.126,1.537v6.551q.069.716.133,1.434c.1,1.056.2,2.148.322,3.212a42.217,42.217,0,0,0,2.845,11.392,35.229,35.229,0,0,0,6.9,10.231c4.866,5.354,9.971,8.942,15.606,10.97a19.473,19.473,0,0,0,6.626,1.281,14.269,14.269,0,0,0,4.534-.733,2.224,2.224,0,0,1,.7-.112,1.878,1.878,0,0,1,.6.095,14.459,14.459,0,0,0,4.651.766,18.656,18.656,0,0,0,6.764-1.378,38.774,38.774,0,0,0,11.878-7.256,47.822,47.822,0,0,0,8.863-10.8c3.446-5.628,4.315-12.082,4.71-17.653a75.945,75.945,0,0,0-.605-15.677C1583.875,603.962,1583.7,603.021,1583.525,602.025ZM1540.45,654.54l-2.394-.252c-.412-.043-.788-.108-1.2-.172a7.364,7.364,0,0,1-2.34-.738c-1.052-.5-2.139-1.017-3.176-1.624a43.627,43.627,0,0,1-14.134-13.58,30.161,30.161,0,0,1-4.421-12.22,69.164,69.164,0,0,1-.3-18.774c.019-.188.052-.363.087-.548.016-.087.034-.181.052-.287l.209-1.221,1.154.452.863.336c.622.242,1.209.471,1.807.711a117.063,117.063,0,0,1,13.769,6.6,1.9,1.9,0,0,1,.975,2.624,40.442,40.442,0,0,0-2.453,9.37,35.634,35.634,0,0,0,.6,11.457,31,31,0,0,0,5.965,13.58c.364.46.754.9,1.167,1.36l.327.368a3.8,3.8,0,0,0,.554.5l2.887,2.058m10.52-1.291c-.292.123-.579.218-.858.31l-.065.022a1.886,1.886,0,0,1-.41.081c-.032,0-.068.007-.109.014l-1.156.17V626.681h-2.491v27.3l-1.248-.3a11.552,11.552,0,0,1-4.994-2.716,22.92,22.92,0,0,1-6.145-9.5,35.582,35.582,0,0,1-2.144-15.02,37.233,37.233,0,0,1,2.678-10.549,116.975,116.975,0,0,1,10.618-20.481c.342-.546.7-1.1,1.078-1.68.19-.292.389-.6.6-.928l.877-1.361.834,1.388c.575.957,1.154,1.907,1.714,2.827,1.261,2.072,2.453,4.029,3.612,6.057a90.714,90.714,0,0,1,7.908,17.206,33.192,33.192,0,0,1-2.93,27.477A15.244,15.244,0,0,1,1550.97,653.249Zm30.047-24.944a31.689,31.689,0,0,1-8.2,15.3,39.6,39.6,0,0,1-13.534,9.974c-.266.113-.531.206-.839.313-.156.054-.327.114-.521.185l-3.666,1.329,2.562-2.94c.249-.285.483-.548.707-.8.443-.5.825-.925,1.178-1.371a31.565,31.565,0,0,0,6.131-14.369,34.844,34.844,0,0,0,.46-10.655,40.506,40.506,0,0,0-2.463-9.441,1.858,1.858,0,0,1,.934-2.577,120.356,120.356,0,0,1,16.017-7.5c.131-.051.255-.087.386-.125l.2-.06,1.187-.364.113,1.237c.039.43.081.855.122,1.278.088.9.179,1.832.24,2.751A65.444,65.444,0,0,1,1581.017,628.3Z" fill="#eaad7f"/></g></svg>