<svg xmlns="http://www.w3.org/2000/svg" width="128.02" height="134.425" viewBox="0 0 128.02 134.425"><g transform="translate(610.59)"><path d="M-494.186,97.158a1.991,1.991,0,0,0-2.1,1.867l-.947,15.844a9.669,9.669,0,0,1-9.641,9.082H-587.43a9.671,9.671,0,0,1-9.641-9.082l-.947-15.844a1.99,1.99,0,0,0-2.1-1.867,1.989,1.989,0,0,0-1.866,2.1l.947,15.844a13.652,13.652,0,0,0,13.611,12.822h80.552a13.653,13.653,0,0,0,13.612-12.822l.946-15.844A1.989,1.989,0,0,0-494.186,97.158Z" transform="translate(0.575 6.496)" fill="#23d16a"/><path d="M-516.99,80.848h22.75l-.908,15.187a2.006,2.006,0,0,0,1.866,2.1,2.007,2.007,0,0,0,2.1-1.866l.922-15.425h2.786a4.906,4.906,0,0,0,4.9-4.9V70.124a4.906,4.906,0,0,0-4.9-4.9h-9.222a13.593,13.593,0,0,0,4-8.844l2.437-40.755h2.786a4.907,4.907,0,0,0,4.9-4.9V4.9a4.906,4.906,0,0,0-4.9-4.9h-93.2a1.988,1.988,0,0,0-1.988,1.989,1.988,1.988,0,0,0,1.988,1.989h93.2a.924.924,0,0,1,.923.923v5.823a.925.925,0,0,1-.923.925H-605.689a.926.926,0,0,1-.924-.925V4.9a.925.925,0,0,1,.924-.923H-589.9a1.989,1.989,0,0,0,1.989-1.989A1.989,1.989,0,0,0-589.9,0h-15.792a4.906,4.906,0,0,0-4.9,4.9v5.823a4.907,4.907,0,0,0,4.9,4.9h2.786l2.437,40.755a13.585,13.585,0,0,0,4,8.844h-9.222a4.907,4.907,0,0,0-4.9,4.9v5.823a4.907,4.907,0,0,0,4.9,4.9h2.786l.922,15.425a2.006,2.006,0,0,0,2.044,1.868,2.007,2.007,0,0,0,1.926-2.106l-.908-15.187h22.75m4.053-65.224h51.074m-51.074,65.224h51.074M-487.47,69.2a.924.924,0,0,1,.923.923v5.823a.925.925,0,0,1-.923.925H-605.689a.926.926,0,0,1-.924-.925V70.124a.925.925,0,0,1,.924-.923Zm-29.52-53.577h22.75l-2.423,40.517a9.669,9.669,0,0,1-9.64,9.082h-80.551a9.67,9.67,0,0,1-9.641-9.082l-2.423-40.517h22.75" transform="translate(0 0)" fill="#23d16a"/><g transform="translate(-565.073 22.516)"><path d="M-564.5,40.348c0-.132,0-.266,0-.4v-.009c0-.076,0-.149,0-.225,0-.051,0-.1,0-.155A17.513,17.513,0,0,1-547,22.427a17.438,17.438,0,0,1,10.488,3.487A18.774,18.774,0,0,0-549.082,21.1,18.845,18.845,0,0,0-567.926,39.95a18.845,18.845,0,0,0,18.845,18.844,18.778,18.778,0,0,0,12.706-4.928A17.441,17.441,0,0,1-547,57.454,17.513,17.513,0,0,1-564.5,40.348Z" transform="translate(567.926 -21.105)" fill="#23d16a"/><g transform="translate(6.523 3.52)"><path d="M-542.632,24.477l-.243-.073-.008.028v0l-.16.544L-548.924,45.3l3.168.926.878-3.009,1.72-1.211,1.43,5.4,3.445,1.006-2.349-7.824,5.759-4.362-3.372-.987-5.562,4.312,3.884-13.457.014-.049.014-.048a15.563,15.563,0,0,1,6.945,12.945,15.581,15.581,0,0,1-15.555,15.571,15.512,15.512,0,0,1-10.839-4.4l.619-2.108,1.253-4.288,2.269.664a4.549,4.549,0,0,0,3.474-.379,4.553,4.553,0,0,0,2.188-2.725l1-3.421a4.559,4.559,0,0,0-.378-3.476,4.554,4.554,0,0,0-2.724-2.19l-1.055-.309a4.555,4.555,0,0,0-3.474.379,4.556,4.556,0,0,0-2.188,2.726l-2.379,8.144-1.058,3.613-.012.041c.116.222.24.441.367.658a15.454,15.454,0,0,0,1.41,2.012,15.963,15.963,0,0,0,12.71,6.292,16,16,0,0,0,15.977-15.992A16.015,16.015,0,0,0-542.632,24.477ZM-555.2,35.9c.816-2.8,4.3-1.777,3.484,1.019l-1,3.423a2.362,2.362,0,0,1-1.134,1.411,2.347,2.347,0,0,1-1.8.2l-1.214-.354Z" transform="translate(561.812 -24.404)" fill="#23d16a"/></g></g><g transform="translate(-566.266 86.96)"><path d="M-565.4,101.995c0-.141-.005-.282-.005-.424v-.01c0-.08,0-.159,0-.239,0-.054,0-.11,0-.164a18.644,18.644,0,0,1,18.639-18.24A18.564,18.564,0,0,1-535.6,86.629a19.985,19.985,0,0,0-13.386-5.119,20.06,20.06,0,0,0-20.059,20.061,20.06,20.06,0,0,0,20.06,20.06,19.986,19.986,0,0,0,13.526-5.246,18.561,18.561,0,0,1-11.305,3.819A18.642,18.642,0,0,1-565.4,101.995Z" transform="translate(569.044 -81.51)" fill="#23d16a"/><g transform="translate(6.943 3.748)"><path d="M-542.118,85.1l-.258-.077-.01.029v.005l-.17.578-6.259,21.628,3.371.986.935-3.2,1.831-1.289,1.521,5.745,3.668,1.071-2.5-8.33,6.131-4.643-3.591-1.051-5.92,4.591,4.134-14.326.016-.052.014-.05a16.559,16.559,0,0,1,7.393,13.781,16.585,16.585,0,0,1-16.558,16.575,16.512,16.512,0,0,1-11.539-4.685l.659-2.245,1.332-4.564,2.416.706a4.836,4.836,0,0,0,3.7-.4,4.84,4.84,0,0,0,2.33-2.9l1.064-3.642a4.86,4.86,0,0,0-.4-3.7,4.852,4.852,0,0,0-2.9-2.332c-.376-.109-.748-.219-1.123-.329a4.85,4.85,0,0,0-3.7.4,4.854,4.854,0,0,0-2.33,2.9l-2.532,8.67-1.127,3.846-.013.044c.124.237.255.469.391.7a16.335,16.335,0,0,0,1.5,2.142,17,17,0,0,0,13.53,6.7,17.036,17.036,0,0,0,17.008-17.025A17.046,17.046,0,0,0-542.118,85.1Zm-13.374,12.164c.87-2.977,4.578-1.893,3.71,1.085l-1.064,3.642a2.513,2.513,0,0,1-1.207,1.5,2.508,2.508,0,0,1-1.915.208l-1.293-.378Z" transform="translate(562.536 -85.023)" fill="#23d16a"/></g></g></g></svg>