<svg xmlns="http://www.w3.org/2000/svg" width="121.463" height="143.957" viewBox="0 0 121.463 143.957"><g transform="translate(277.5 42.904)"><g transform="translate(-277.5 -42.904)"><path d="M-161.66-9.164H-178.8A38.293,38.293,0,0,0-216.768-42.9a38.293,38.293,0,0,0-37.972,33.74h-17.136A5.623,5.623,0,0,0-277.5-3.541v98.97a5.623,5.623,0,0,0,5.623,5.623H-161.66a5.623,5.623,0,0,0,5.623-5.623V-3.541A5.623,5.623,0,0,0-161.66-9.164Zm-55.108-22.493A27.033,27.033,0,0,1-190.154-9.164h-53.229A27.033,27.033,0,0,1-216.768-31.658Z" transform="translate(277.5 42.904)" fill="#23d16a"/></g><g transform="translate(-235.895 26.29)"><path d="M-189.869,116.852c0-.137-.005-.274-.005-.412v-.009c0-.077,0-.154,0-.232,0-.053,0-.107,0-.16a18.113,18.113,0,0,1,18.108-17.721,18.035,18.035,0,0,1,10.848,3.606,19.418,19.418,0,0,0-13.005-4.974,19.49,19.49,0,0,0-19.489,19.49,19.49,19.49,0,0,0,19.49,19.49,19.418,19.418,0,0,0,13.141-5.1,18.032,18.032,0,0,1-10.985,3.711A18.112,18.112,0,0,1-189.869,116.852Z" transform="translate(193.408 -96.95)" fill="#fff"/><g transform="translate(6.746 3.641)"><path d="M-159.937,104.384c-.084-.026-.167-.05-.251-.075l-.009.029v0l-.165.562-6.082,21.012,3.275.958.908-3.112,1.779-1.253,1.478,5.582,3.563,1.041-2.43-8.093,5.957-4.511-3.489-1.021-5.752,4.46,4.017-13.918.015-.051.014-.049a16.093,16.093,0,0,1,7.183,13.389,16.114,16.114,0,0,1-16.088,16.1,16.042,16.042,0,0,1-11.211-4.551l.64-2.18,1.3-4.435,2.347.686a4.7,4.7,0,0,0,3.592-.391,4.712,4.712,0,0,0,2.263-2.819l1.033-3.539a4.718,4.718,0,0,0-.391-3.594,4.711,4.711,0,0,0-2.817-2.265l-1.092-.319a4.706,4.706,0,0,0-3.592.392,4.709,4.709,0,0,0-2.264,2.818l-2.459,8.424-1.095,3.737-.012.042c.121.231.248.456.379.681a15.836,15.836,0,0,0,1.459,2.081,16.515,16.515,0,0,0,13.144,6.508,16.551,16.551,0,0,0,16.524-16.54A16.561,16.561,0,0,0-159.937,104.384ZM-172.93,116.2c.845-2.892,4.448-1.839,3.6,1.053l-1.033,3.539a2.439,2.439,0,0,1-1.173,1.46,2.429,2.429,0,0,1-1.86.2l-1.256-.367Z" transform="translate(179.773 -104.309)" fill="#fff"/></g></g></g></svg>