<svg xmlns="http://www.w3.org/2000/svg" width="90.549" height="92" viewBox="0 0 90.549 92"><g transform="translate(689.62 -356.507)"><path d="M-594.042,412.891a31.137,31.137,0,0,0-2.409-52.116,1.263,1.263,0,0,0-.19-.109,31.163,31.163,0,0,0-36.388,3.83,1.347,1.347,0,0,0-.1,1.9,1.347,1.347,0,0,0,1.9.1,28.489,28.489,0,0,1,24.339-6.8,7.112,7.112,0,0,1-2.265,4.121c-2.195,2.088-11.284.286-14.585,7.5a37.443,37.443,0,0,1-1.669,3.69,6.643,6.643,0,0,0-1.8-3.676,3.217,3.217,0,0,0-2.431-.85c-1.526.15-2.584,1.475-3.217,2.267-1.337,1.675-.742,3.178-.308,4.277a3.707,3.707,0,0,1,.1,3.353c-.619,1.4.667,2.932,1.089,3.434,1.732,2.061,6.079,5.478,8.728,4.822,6.465-1.607,8.3,8.93,12.6,10.027,3.223.822,6.323,2.686,5.932,4.384-1.2,5.228-6.165,4.717-9.275,6.1a21.138,21.138,0,0,0-6.9,5.552,28.383,28.383,0,0,1-4.723-1.989c.2-.474.427-.971.675-1.492,2.252-4.728,2.1-7.19-3.224-11.588-2.554-2.108-1.672-4.958-.482-6.978a2.859,2.859,0,0,0-.854-3.8c-1.922-1.315-7.55-4.684-10.176-8.561a28.144,28.144,0,0,1,4.9-9.964,1.348,1.348,0,0,0-.248-1.89,1.348,1.348,0,0,0-1.89.248,31.123,31.123,0,0,0-1.68,35.449,31.1,31.1,0,0,0,44.24,8.971A1.236,1.236,0,0,0-594.042,412.891Zm-.391-3.084c-.23-2.081,1.656-5.2,3.358-8.02,2.232-3.692,4.338-7.179,2.663-9.672-1.588-2.362-3.933-1.409-6.676-3.673-1.608-1.327-3.1-3.008-2.224-7.6.249-1.3,1.5-2.925,3.527-4.567a4.031,4.031,0,0,0,1.227-4.5,2.119,2.119,0,0,1-.18-1.228c.967-2.483-3.129-3.819-3.484-6.451A28.439,28.439,0,0,1-594.433,409.808Zm-45.929-26.064c3.073,3.4,7.292,5.925,9.352,7.334a.155.155,0,0,1,.052.207c-2.4,4.073-2,7.873,1.089,10.425,5.113,4.22,3.9,5.128,1.931,9.609A28.45,28.45,0,0,1-640.362,383.744Zm22.381,31.719a18.468,18.468,0,0,1,5.089-3.85c2.568-1.138,9.205-.992,10.809-7.955.84-3.647-3.359-6.445-7.893-7.6-2.471-.63-5.493-12.122-13.915-10.032a4.944,4.944,0,0,1-2.563-1.03,12.394,12.394,0,0,1-4.041-3.754,6.351,6.351,0,0,0-.161-5.2c-.412-1.042-.421-1.192-.093-1.6.243-.3.981-1.228,1.373-1.267a.74.74,0,0,1,.428.225c1.112.94.545,4.152,3,4.618,2.625.5,3.669-3.4,4.661-5.569,2.686-5.873,10.726-3.566,13.992-6.672a9.719,9.719,0,0,0,3.043-5.443,28.489,28.489,0,0,1,5.433,2.2c-.824,3.925,2.581,6.179,3.468,7.34a4.7,4.7,0,0,0,.257,2.815,1.333,1.333,0,0,1-.389,1.493c-1.781,1.445-4,3.685-4.477,6.154-1.105,5.772.975,8.391,3.155,10.191,5.068,4.183,9.407-.031,3.423,9.871-2.245,3.714-4.751,7.864-3.4,11.1A28.345,28.345,0,0,1-617.981,415.462Z" transform="translate(-32.141)" fill="#eaad7f"/><path d="M-668.238,539.522a1.344,1.344,0,0,0,1.093.559,1.349,1.349,0,0,0,1.092-2.137c-1.769-2.452-9.608-6.548-13.792-10.674-1.623-1.6-4.467-7.13-5.213-9.46l-1.841-6.628a.676.676,0,0,1,1.29-.4c2.146,4.575,2.33,5.508,3.406,6.894a27.18,27.18,0,0,0,9.3,7.616l5.739,5.771a1.341,1.341,0,0,0,.955.4,1.349,1.349,0,0,0,.956-2.3l-5.792-5.825-2.283-3.547a.8.8,0,0,1,1.314-.866c7.835,8.238,7.461,7.989,7.865,8.186l8.409,4.085c4.591,2.23,4.262,7.092,4.371,7.438a1.348,1.348,0,0,0,1.466,1.219,1.348,1.348,0,0,0,1.219-1.466l-.119-1.29a10.364,10.364,0,0,0-5.76-8.326l-8.188-3.978-7.316-7.731a3.541,3.541,0,0,0-4.4-.576,3.5,3.5,0,0,0-1.576,3.621,24.4,24.4,0,0,1-4.03-4.083c-.773-1-.8-1.45-3.081-6.357a3.427,3.427,0,0,0-3.829-1.956A3.372,3.372,0,0,0-689.5,511.9c2.48,8.928,1.693,6.162,1.862,6.7.85,2.679,3.893,8.612,5.9,10.586a62.463,62.463,0,0,0,8.311,6.368C-672.254,536.356-668.927,538.568-668.238,539.522Z" transform="translate(0 -104.941)" fill="#eaad7f"/><path d="M-488.613,507.8a3.364,3.364,0,0,0-4.144,1.8c-2.306,4.959-2.331,5.419-3.108,6.418a24.393,24.393,0,0,1-4.03,4.084,3.5,3.5,0,0,0-1.577-3.621,3.545,3.545,0,0,0-4.407.586l-7.306,7.721-8.188,3.978c-6.109,2.967-5.76,9.3-5.884,9.672a1.347,1.347,0,0,0,1.219,1.465,1.348,1.348,0,0,0,1.465-1.218c.109-.344-.222-5.261,4.378-7.494,8.8-4.308,8.481-4.035,8.8-4.371l7.465-7.889a.794.794,0,0,1,1.323.856l-2.283,3.547-5.792,5.825a1.349,1.349,0,0,0,.956,2.3c1.023,0,1.065-.7,6.695-6.169,5.239-2.612,9.255-6.929,10.394-9.434l2.335-5.138a.676.676,0,0,1,1.245.522l-1.824,6.565c-.746,2.331-3.59,7.86-5.212,9.46-4.174,4.117-12,8.207-13.781,10.658a1.35,1.35,0,0,0,1.089,2.142,1.345,1.345,0,0,0,1.091-.555c1.356-1.862,9.209-6.1,13.494-10.325,2-1.975,5.047-7.908,5.9-10.587.17-.539-.527,1.9,1.845-6.636A3.4,3.4,0,0,0-488.613,507.8Z" transform="translate(-112.74 -104.932)" fill="#eaad7f"/><path d="M-601.64,622.106h-16.506a3.128,3.128,0,0,0-3.125,3.125v4.581a3.128,3.128,0,0,0,3.125,3.124h16.506a3.128,3.128,0,0,0,3.124-3.124v-4.581A3.128,3.128,0,0,0-601.64,622.106Zm.429,7.706a.429.429,0,0,1-.429.429h-16.506a.429.429,0,0,1-.429-.429v-4.581a.429.429,0,0,1,.429-.429h16.506a.429.429,0,0,1,.429.429Z" transform="translate(-47.461 -184.429)" fill="#eaad7f"/><path d="M-516.465,622.106h-16.507a3.128,3.128,0,0,0-3.124,3.125v4.581a3.128,3.128,0,0,0,3.124,3.124h16.507a3.128,3.128,0,0,0,3.124-3.124v-4.581A3.128,3.128,0,0,0-516.465,622.106Zm.428,7.706a.429.429,0,0,1-.428.429h-16.507a.429.429,0,0,1-.428-.429v-4.581a.429.429,0,0,1,.428-.429h16.507a.429.429,0,0,1,.428.429Z" transform="translate(-106.606 -184.429)" fill="#eaad7f"/></g></svg>