<svg xmlns="http://www.w3.org/2000/svg" width="95.405" height="105.288" viewBox="0 0 95.405 105.288">
  <defs>
    <style>
      .cls-1 {
        fill: #23d16a;
      }
    </style>
  </defs>
  <g id="Group_86" data-name="Group 86" transform="translate(958.427 -4.272)">
    <path id="Path_46" data-name="Path 46" class="cls-1" d="M-917.211,184.85a13.773,13.773,0,0,0,13.773,13.773,13.723,13.723,0,0,0,9.286-3.6,12.743,12.743,0,0,1-7.762,2.622,12.8,12.8,0,0,1-12.8-12.5q0-.145,0-.291v-.006c0-.055,0-.109,0-.164,0-.038,0-.076,0-.113a12.8,12.8,0,0,1,12.8-12.523,12.744,12.744,0,0,1,7.666,2.548,13.721,13.721,0,0,0-9.19-3.515A13.773,13.773,0,0,0-917.211,184.85Z" transform="translate(-23.528 -95.219)"/>
    <path id="Path_47" data-name="Path 47" class="cls-1" d="M-902.933,191.181l1.659.485a3.324,3.324,0,0,0,2.539-.277,3.327,3.327,0,0,0,1.6-1.991l.73-2.5a3.332,3.332,0,0,0-.276-2.54,3.326,3.326,0,0,0-1.99-1.6l-.772-.226a3.324,3.324,0,0,0-2.539.277,3.327,3.327,0,0,0-1.6,1.991l-1.738,5.953-.774,2.641-.009.03c.085.163.175.322.268.482a11.241,11.241,0,0,0,1.03,1.471,11.671,11.671,0,0,0,9.289,4.6,11.7,11.7,0,0,0,11.677-11.688,11.7,11.7,0,0,0-8.247-11.16l-.178-.053-.006.02v0l-.116.4-4.3,14.849,2.314.677.642-2.2,1.257-.885,1.045,3.944,2.518.736-1.718-5.719,4.21-3.188-2.465-.721-4.065,3.151,2.838-9.835.011-.036.01-.034a11.372,11.372,0,0,1,5.076,9.461,11.387,11.387,0,0,1-11.368,11.38,11.334,11.334,0,0,1-7.922-3.216l.452-1.541Zm1.666-5.7c.6-2.043,3.143-1.3,2.546.745l-.73,2.5a1.72,1.72,0,0,1-.828,1.032,1.719,1.719,0,0,1-1.315.143l-.888-.26Z" transform="translate(-29.869 -98.642)"/>
    <g id="Group_82" data-name="Group 82" transform="translate(-905.068 4.272)">
      <path id="Path_48" data-name="Path 48" class="cls-1" d="M-811.154,53.854a8.859,8.859,0,0,0,5.5,2.71,5.535,5.535,0,0,0,4.329-1.212l.191-.186-11.927-11.937C-816.131,46.439-814.115,50.8-811.154,53.854Z" transform="translate(822.961 -26.51)"/>
      <path id="Path_49" data-name="Path 49" class="cls-1" d="M-796.308,19.048a1.448,1.448,0,0,0-2.048-.03c-3.7,3.587-7.146,7.085-9.916,9.9q-1.062,1.078-1.943,1.969l-2.732-2.734,11.543-11.2a1.449,1.449,0,0,0,.031-2.048,1.448,1.448,0,0,0-2.048-.03L-814.995,26.1l-2.572-2.574,11.612-11.267a1.448,1.448,0,0,0,.031-2.048,1.448,1.448,0,0,0-2.048-.031l-11.643,11.3-2.505-2.507,12.582-12.209a1.447,1.447,0,0,0,.03-2.048,1.447,1.447,0,0,0-2.048-.031l-14.48,14.05c-3.7,3.59-3.415,8.863.617,13.727l-8.235,8.111a1.448,1.448,0,0,0-.031,2.048,1.443,1.443,0,0,0,.8.42,1.446,1.446,0,0,0,1.247-.389l8.241-8.117a11.709,11.709,0,0,0,5.556,2.58c.259.044.521.077.784.1a8.314,8.314,0,0,0,6.614-2.018c1.005-.975,2.428-2.418,4.23-4.246,2.761-2.8,6.2-6.285,9.871-9.85A1.45,1.45,0,0,0-796.308,19.048Zm-16.149,14.066a5.535,5.535,0,0,1-4.329,1.212,8.859,8.859,0,0,1-5.5-2.71c-2.961-3.052-4.977-7.415-1.909-10.625l11.927,11.937Z" transform="translate(834.092 -4.272)"/>
    </g>
    <path id="Path_50" data-name="Path 50" class="cls-1" d="M-879.192,163.474h0Z" transform="translate(-45.231 -90.879)"/>
    <path id="Path_51" data-name="Path 51" class="cls-1" d="M-820.924,163.474h0Z" transform="translate(-76.606 -90.879)"/>
    <path id="Path_52" data-name="Path 52" class="cls-1" d="M-888.507,163.474h0Z" transform="translate(-39.913 -90.879)"/>
    <g id="Group_84" data-name="Group 84" transform="translate(-958.427 4.401)">
      <path id="Path_53" data-name="Path 53" class="cls-1" d="M-900.6,39.4c4.392,10.889,7.2,10.53,8.814,10.738a3.154,3.154,0,0,0,2.213-.535c1.8-1.229,2.4-1.587,3.1-2,.244-.145.5-.3.831-.5,1.717,2.813,3.788,6.993,5.854,11.236a1.148,1.148,0,0,0,1.032.645h2.5l-.1-.2c-2.814-5.795-5.473-11.269-7.647-14.485a1.446,1.446,0,0,0-1.015-.625,1.443,1.443,0,0,0-.97.22c-.972.628-3.345,2.043-5.22,3.322a.261.261,0,0,1-.21.055c-.993.514-1.057-.241-2.733-2.517-2.7-3.665-10.328-25.2-12.534-32.271-.856-2.743.056-1.23.726-.368,5.092,6.551,23.634,31.021,35.136,46.413a1.141,1.141,0,0,0,.917.457h.7a1.147,1.147,0,0,0,.919-1.835c-12.964-17.259-35.364-46.619-39.737-51.892a1.479,1.479,0,0,0-2.2-.324c-.647.638-1.035,1.569.32,7.146C-909.1,15.414-902.763,34.045-900.6,39.4Z" transform="translate(931.251 -4.572)"/>
      <path id="Path_54" data-name="Path 54" class="cls-1" d="M-884.221,113.788c-2.1,1.584-4.453,3.393-6.845,5.306a1.149,1.149,0,0,0,.716,2.046h.965a1.148,1.148,0,0,0,.714-.25c2.187-1.738,4.33-3.383,6.256-4.836a1.449,1.449,0,0,0,.237-2.089A1.5,1.5,0,0,0-884.221,113.788Z" transform="translate(920.222 -66.736)"/>
      <path id="Path_55" data-name="Path 55" class="cls-1" d="M-857.079,119.264c-.807.908-1.7,1.911-2.661,2.975a1.148,1.148,0,0,0,.853,1.916h.806a1.15,1.15,0,0,0,.854-.381c.915-1.018,1.713-1.911,2.34-2.617a1.448,1.448,0,0,0-.368-2.221A1.474,1.474,0,0,0-857.079,119.264Z" transform="translate(902.262 -69.75)"/>
      <g id="Group_83" data-name="Group 83" transform="translate(0 56.55)">
        <path id="Path_56" data-name="Path 56" class="cls-1" d="M-862.157,196.17a1.484,1.484,0,0,0-1.568,1.391l-.706,11.808a7.207,7.207,0,0,1-7.185,6.769h-60.031a7.207,7.207,0,0,1-7.185-6.769l-.706-11.808a1.482,1.482,0,0,0-1.568-1.391,1.483,1.483,0,0,0-1.391,1.569l.706,11.808a10.175,10.175,0,0,0,10.144,9.555h60.031a10.175,10.175,0,0,0,10.144-9.555l.706-11.808A1.482,1.482,0,0,0-862.157,196.17Z" transform="translate(949.335 -170.493)"/>
        <path id="Path_57" data-name="Path 57" class="cls-1" d="M-866.673,136.343h-88.1A3.656,3.656,0,0,0-958.427,140v4.34a3.731,3.731,0,0,0,.024.405,3.657,3.657,0,0,0,3.628,3.247h2.076l.05.837.637,10.657a1.5,1.5,0,0,0,1.523,1.393,1.5,1.5,0,0,0,1.435-1.57l-.626-10.48-.05-.837h78.011l-.05.837-.626,10.481A1.5,1.5,0,0,0-871,160.873a1.5,1.5,0,0,0,1.568-1.391l.637-10.657.05-.837h2.076a3.656,3.656,0,0,0,3.652-3.652V140A3.656,3.656,0,0,0-866.673,136.343Zm.689,7.992a.689.689,0,0,1-.688.688h-88.1a.685.685,0,0,1-.553-.283.682.682,0,0,1-.135-.405V140a.689.689,0,0,1,.688-.688h88.1a.689.689,0,0,1,.688.688Z" transform="translate(958.427 -136.343)"/>
      </g>
    </g>
    <g id="Group_85" data-name="Group 85" transform="translate(-910.342 80.272)">
      <path id="Path_58" data-name="Path 58" class="cls-1" d="M-844.95,186.2a1.2,1.2,0,0,1-.358-.871l-.005-.206.005-.206a1.2,1.2,0,0,1,.358-.871,1.275,1.275,0,0,1,.9-.314,1.5,1.5,0,0,1,.688.144,1.063,1.063,0,0,1,.417.353.821.821,0,0,1,.147.4.1.1,0,0,1-.034.088.129.129,0,0,1-.09.036h-.459a.119.119,0,0,1-.082-.024.244.244,0,0,1-.051-.085.6.6,0,0,0-.2-.284.554.554,0,0,0-.322-.088.521.521,0,0,0-.41.165.78.78,0,0,0-.157.505l-.005.191.005.17q.031.67.567.67a.563.563,0,0,0,.325-.085.592.592,0,0,0,.2-.286.209.209,0,0,1,.049-.083.123.123,0,0,1,.085-.026h.459a.129.129,0,0,1,.09.036.1.1,0,0,1,.034.088.82.82,0,0,1-.145.389,1.078,1.078,0,0,1-.412.358,1.458,1.458,0,0,1-.7.149A1.275,1.275,0,0,1-844.95,186.2Z" transform="translate(845.771 -182.715)"/>
      <path id="Path_59" data-name="Path 59" class="cls-1" d="M-838.142,185.192a.119.119,0,0,1-.036-.088v-3.412a.117.117,0,0,1,.036-.09.122.122,0,0,1,.088-.033h.469a.12.12,0,0,1,.09.033.122.122,0,0,1,.034.09v1.175a1.026,1.026,0,0,1,.83-.371.973.973,0,0,1,.757.312,1.213,1.213,0,0,1,.284.848V185.1a.124.124,0,0,1-.034.088.117.117,0,0,1-.09.036h-.469a.126.126,0,0,1-.093-.036.118.118,0,0,1-.036-.088v-1.417a.683.683,0,0,0-.147-.467.529.529,0,0,0-.42-.167.551.551,0,0,0-.422.17.649.649,0,0,0-.16.464V185.1a.124.124,0,0,1-.034.088.117.117,0,0,1-.09.036h-.469A.119.119,0,0,1-838.142,185.192Z" transform="translate(841.698 -181.481)"/>
      <path id="Path_60" data-name="Path 60" class="cls-1" d="M-830.635,181.957a.116.116,0,0,1-.036-.087v-.376a.125.125,0,0,1,.036-.093.12.12,0,0,1,.088-.036h.474a.127.127,0,0,1,.093.036.126.126,0,0,1,.036.093v.376a.114.114,0,0,1-.039.087.126.126,0,0,1-.09.036h-.474A.117.117,0,0,1-830.635,181.957Zm.021,3.119a.118.118,0,0,1-.036-.088v-2.433a.116.116,0,0,1,.036-.09.124.124,0,0,1,.088-.034h.438a.12.12,0,0,1,.088.036.119.119,0,0,1,.036.088v2.433a.119.119,0,0,1-.036.088.12.12,0,0,1-.088.036h-.438A.118.118,0,0,1-830.614,185.075Z" transform="translate(837.413 -181.364)"/>
      <path id="Path_61" data-name="Path 61" class="cls-1" d="M-827.33,186.2a1.2,1.2,0,0,1-.358-.871l-.005-.206.005-.206a1.2,1.2,0,0,1,.358-.871,1.274,1.274,0,0,1,.9-.314,1.494,1.494,0,0,1,.688.144,1.064,1.064,0,0,1,.418.353.819.819,0,0,1,.147.4.1.1,0,0,1-.033.088.128.128,0,0,1-.09.036h-.459a.119.119,0,0,1-.082-.024.232.232,0,0,1-.052-.085.6.6,0,0,0-.2-.284.552.552,0,0,0-.322-.088.52.52,0,0,0-.41.165.778.778,0,0,0-.158.505l-.005.191.005.17q.031.67.567.67a.562.562,0,0,0,.324-.085.592.592,0,0,0,.2-.286.21.21,0,0,1,.049-.083.123.123,0,0,1,.085-.026h.459a.128.128,0,0,1,.09.036.1.1,0,0,1,.033.088.819.819,0,0,1-.144.389,1.085,1.085,0,0,1-.412.358,1.459,1.459,0,0,1-.7.149A1.274,1.274,0,0,1-827.33,186.2Z" transform="translate(835.713 -182.715)"/>
      <path id="Path_62" data-name="Path 62" class="cls-1" d="M-820.522,185.192a.119.119,0,0,1-.036-.088v-3.412a.117.117,0,0,1,.036-.09.121.121,0,0,1,.088-.033h.428a.119.119,0,0,1,.088.036.119.119,0,0,1,.036.088v1.763l.856-.82c.01-.007.026-.02.049-.039a.2.2,0,0,1,.064-.039.246.246,0,0,1,.077-.011h.49a.112.112,0,0,1,.082.031.111.111,0,0,1,.031.082.129.129,0,0,1-.051.093l-1.051.995,1.181,1.278a.132.132,0,0,1,.046.088.111.111,0,0,1-.031.082.106.106,0,0,1-.078.031h-.5a.228.228,0,0,1-.106-.018.409.409,0,0,1-.085-.07l-.974-1.036v1a.119.119,0,0,1-.036.088.119.119,0,0,1-.088.036h-.428A.118.118,0,0,1-820.522,185.192Z" transform="translate(831.64 -181.481)"/>
      <path id="Path_63" data-name="Path 63" class="cls-1" d="M-814.142,186.185a1.318,1.318,0,0,1-.358-.938l-.005-.129a1.455,1.455,0,0,1,.337-1.016,1.2,1.2,0,0,1,.936-.371,1.2,1.2,0,0,1,.946.371,1.429,1.429,0,0,1,.332.99v.109a.119.119,0,0,1-.036.088.125.125,0,0,1-.093.036h-1.712v.041a.8.8,0,0,0,.158.477.485.485,0,0,0,.4.188.582.582,0,0,0,.479-.237.283.283,0,0,1,.072-.07.22.22,0,0,1,.088-.012h.454a.127.127,0,0,1,.08.026.086.086,0,0,1,.034.072.479.479,0,0,1-.147.291,1.217,1.217,0,0,1-.42.291,1.526,1.526,0,0,1-.634.124A1.254,1.254,0,0,1-814.142,186.185Zm1.477-1.3v-.01a.738.738,0,0,0-.152-.487.51.51,0,0,0-.415-.183.5.5,0,0,0-.412.183.746.746,0,0,0-.15.487v.01Z" transform="translate(828.185 -182.715)"/>
      <path id="Path_64" data-name="Path 64" class="cls-1" d="M-807.251,186.427a.119.119,0,0,1-.036-.088v-2.433a.117.117,0,0,1,.036-.09.124.124,0,0,1,.088-.034h.428a.122.122,0,0,1,.09.034.122.122,0,0,1,.033.09v.211a1.051,1.051,0,0,1,.861-.386.963.963,0,0,1,.753.309,1.225,1.225,0,0,1,.278.851v1.448a.124.124,0,0,1-.033.088.117.117,0,0,1-.09.036h-.464a.119.119,0,0,1-.088-.036.119.119,0,0,1-.036-.088v-1.417a.684.684,0,0,0-.147-.467.53.53,0,0,0-.42-.167.553.553,0,0,0-.423.17.651.651,0,0,0-.16.464v1.417a.122.122,0,0,1-.033.088.117.117,0,0,1-.09.036h-.459A.119.119,0,0,1-807.251,186.427Z" transform="translate(824.065 -182.715)"/>
      <path id="Path_65" data-name="Path 65" class="cls-1" d="M-799.816,189.039a.119.119,0,0,1-.036-.088v-.521a.119.119,0,0,1,.036-.088.119.119,0,0,1,.088-.036h.521a.119.119,0,0,1,.088.036.119.119,0,0,1,.036.088v.521a.124.124,0,0,1-.033.088.117.117,0,0,1-.09.036h-.521A.119.119,0,0,1-799.816,189.039Z" transform="translate(819.82 -185.327)"/>
      <path id="Path_66" data-name="Path 66" class="cls-1" d="M-845,200.822a.872.872,0,0,1-.345-.286.674.674,0,0,1-.127-.4.68.68,0,0,1,.284-.567,1.7,1.7,0,0,1,.778-.294l.706-.1v-.109a.456.456,0,0,0-.113-.335.494.494,0,0,0-.361-.113.524.524,0,0,0-.273.062.854.854,0,0,0-.167.126l-.085.085a.078.078,0,0,1-.077.062h-.4a.114.114,0,0,1-.08-.031.107.107,0,0,1-.033-.082.542.542,0,0,1,.126-.291.984.984,0,0,1,.374-.283,1.43,1.43,0,0,1,.624-.121,1.229,1.229,0,0,1,.887.273.96.96,0,0,1,.279.716v1.619a.124.124,0,0,1-.034.088.117.117,0,0,1-.09.036h-.428a.119.119,0,0,1-.088-.036.119.119,0,0,1-.036-.088v-.2a.844.844,0,0,1-.319.27,1.126,1.126,0,0,1-.516.106A1.1,1.1,0,0,1-845,200.822Zm1.121-.575a.737.737,0,0,0,.181-.536v-.1l-.516.083q-.593.093-.593.4a.288.288,0,0,0,.136.255.581.581,0,0,0,.327.09A.618.618,0,0,0-843.876,200.247Z" transform="translate(845.86 -190.943)"/>
      <path id="Path_67" data-name="Path 67" class="cls-1" d="M-838.024,200.809a1.039,1.039,0,0,1-.389-.276.468.468,0,0,1-.126-.271.107.107,0,0,1,.034-.082.115.115,0,0,1,.08-.031H-838a.087.087,0,0,1,.072.041l.116.1a.686.686,0,0,0,.206.121.716.716,0,0,0,.255.044.628.628,0,0,0,.335-.08.254.254,0,0,0,.129-.23.241.241,0,0,0-.059-.167.539.539,0,0,0-.212-.118,4.071,4.071,0,0,0-.456-.121,1.376,1.376,0,0,1-.647-.284.651.651,0,0,1-.209-.505.681.681,0,0,1,.124-.389.888.888,0,0,1,.369-.3,1.349,1.349,0,0,1,.585-.116,1.5,1.5,0,0,1,.6.111,1.047,1.047,0,0,1,.384.265.451.451,0,0,1,.131.273.109.109,0,0,1-.034.08.109.109,0,0,1-.08.033h-.387a.1.1,0,0,1-.088-.041c-.024-.017-.063-.049-.116-.1a.676.676,0,0,0-.178-.111.61.61,0,0,0-.237-.041.46.46,0,0,0-.294.082.264.264,0,0,0-.1.216.241.241,0,0,0,.049.154.453.453,0,0,0,.2.116,3.106,3.106,0,0,0,.449.111q.928.18.927.809a.7.7,0,0,1-.317.593,1.5,1.5,0,0,1-.884.227A1.594,1.594,0,0,1-838.024,200.809Z" transform="translate(841.904 -190.943)"/>
      <path id="Path_68" data-name="Path 68" class="cls-1" d="M-831.74,201.821a.116.116,0,0,1-.036-.09v-3.412a.117.117,0,0,1,.036-.091.124.124,0,0,1,.087-.033h.412a.126.126,0,0,1,.093.036.121.121,0,0,1,.036.088v.206a.942.942,0,0,1,.819-.381.991.991,0,0,1,.8.327,1.4,1.4,0,0,1,.3.879q.005.062.005.185c0,.082,0,.144-.005.186a1.371,1.371,0,0,1-.3.874.991.991,0,0,1-.8.332.924.924,0,0,1-.788-.366v1.17a.122.122,0,0,1-.033.09.122.122,0,0,1-.09.033h-.449A.122.122,0,0,1-831.74,201.821Zm1.84-2.131c0-.034.005-.086.005-.155s0-.12-.005-.155q-.036-.68-.588-.68a.515.515,0,0,0-.438.191.8.8,0,0,0-.154.464q-.005.062-.005.2c0,.09,0,.157.005.2a.712.712,0,0,0,.16.438.53.53,0,0,0,.433.18Q-829.936,200.37-829.9,199.69Z" transform="translate(838.044 -190.943)"/>
      <path id="Path_69" data-name="Path 69" class="cls-1" d="M-824.35,200.822a.874.874,0,0,1-.346-.286.677.677,0,0,1-.126-.4.681.681,0,0,1,.283-.567,1.7,1.7,0,0,1,.779-.294l.706-.1v-.109a.454.454,0,0,0-.114-.335.493.493,0,0,0-.36-.113.523.523,0,0,0-.273.062.838.838,0,0,0-.167.126l-.085.085a.078.078,0,0,1-.077.062h-.4a.114.114,0,0,1-.08-.031.107.107,0,0,1-.034-.082.546.546,0,0,1,.126-.291.991.991,0,0,1,.374-.283,1.432,1.432,0,0,1,.624-.121,1.23,1.23,0,0,1,.887.273.96.96,0,0,1,.278.716v1.619a.124.124,0,0,1-.034.088.117.117,0,0,1-.09.036h-.428a.121.121,0,0,1-.088-.036.121.121,0,0,1-.036-.088v-.2a.845.845,0,0,1-.319.27,1.125,1.125,0,0,1-.515.106A1.094,1.094,0,0,1-824.35,200.822Zm1.121-.575a.739.739,0,0,0,.181-.536v-.1l-.516.083q-.592.093-.593.4a.288.288,0,0,0,.136.255.582.582,0,0,0,.327.09A.619.619,0,0,0-823.229,200.247Z" transform="translate(834.074 -190.943)"/>
      <path id="Path_70" data-name="Path 70" class="cls-1" d="M-817.508,200.907a.119.119,0,0,1-.036-.088v-2.428a.125.125,0,0,1,.036-.093.12.12,0,0,1,.088-.036H-817a.125.125,0,0,1,.093.036.126.126,0,0,1,.036.093v.211a.876.876,0,0,1,.742-.34h.217a.124.124,0,0,1,.09.033.124.124,0,0,1,.034.091v.376a.125.125,0,0,1-.034.088.117.117,0,0,1-.09.036h-.407a.515.515,0,0,0-.382.139.515.515,0,0,0-.139.382v1.412a.121.121,0,0,1-.036.088.121.121,0,0,1-.088.036h-.459A.119.119,0,0,1-817.508,200.907Z" transform="translate(829.92 -191.011)"/>
      <path id="Path_71" data-name="Path 71" class="cls-1" d="M-812.544,200.822a.872.872,0,0,1-.345-.286.674.674,0,0,1-.127-.4.681.681,0,0,1,.284-.567,1.7,1.7,0,0,1,.778-.294l.706-.1v-.109a.456.456,0,0,0-.113-.335.494.494,0,0,0-.361-.113.525.525,0,0,0-.273.062.854.854,0,0,0-.167.126l-.085.085a.078.078,0,0,1-.077.062h-.4a.114.114,0,0,1-.08-.031.107.107,0,0,1-.033-.082.546.546,0,0,1,.126-.291.985.985,0,0,1,.374-.283,1.431,1.431,0,0,1,.624-.121,1.229,1.229,0,0,1,.887.273.96.96,0,0,1,.279.716v1.619a.124.124,0,0,1-.034.088.117.117,0,0,1-.09.036h-.428a.119.119,0,0,1-.088-.036.119.119,0,0,1-.036-.088v-.2a.844.844,0,0,1-.319.27,1.127,1.127,0,0,1-.516.106A1.1,1.1,0,0,1-812.544,200.822Zm1.121-.575a.739.739,0,0,0,.18-.536v-.1l-.516.083q-.593.093-.593.4a.288.288,0,0,0,.136.255.581.581,0,0,0,.328.09A.62.62,0,0,0-811.423,200.247Z" transform="translate(827.335 -190.943)"/>
      <path id="Path_72" data-name="Path 72" class="cls-1" d="M-805.412,201.858a1.011,1.011,0,0,1-.4-.348.679.679,0,0,1-.119-.335.109.109,0,0,1,.036-.085.123.123,0,0,1,.088-.034h.459a.137.137,0,0,1,.08.024.161.161,0,0,1,.054.085.6.6,0,0,0,.17.229.539.539,0,0,0,.351.1.642.642,0,0,0,.454-.137.641.641,0,0,0,.144-.477v-.351a.974.974,0,0,1-.788.33.989.989,0,0,1-.807-.325,1.432,1.432,0,0,1-.291-.887l0-.139,0-.139a1.454,1.454,0,0,1,.294-.887.978.978,0,0,1,.8-.335,1.066,1.066,0,0,1,.479.1.975.975,0,0,1,.34.279v-.2a.12.12,0,0,1,.039-.093.128.128,0,0,1,.09-.036h.422a.12.12,0,0,1,.088.036.125.125,0,0,1,.036.093l.005,2.484a1.187,1.187,0,0,1-.32.887,1.323,1.323,0,0,1-.964.315A1.572,1.572,0,0,1-805.412,201.858Zm1.155-1.734a.8.8,0,0,0,.16-.454,1.621,1.621,0,0,0,.005-.165,1.621,1.621,0,0,0-.005-.165.8.8,0,0,0-.16-.454.515.515,0,0,0-.433-.185q-.556,0-.588.68l-.005.124q0,.8.593.8A.515.515,0,0,0-804.257,200.123Z" transform="translate(823.324 -190.943)"/>
      <path id="Path_73" data-name="Path 73" class="cls-1" d="M-798.126,200.686a1.238,1.238,0,0,1-.273-.85v-1.448a.119.119,0,0,1,.036-.091.128.128,0,0,1,.088-.033h.464a.12.12,0,0,1,.088.036.119.119,0,0,1,.036.088V199.8q0,.634.552.634a.551.551,0,0,0,.425-.17.657.657,0,0,0,.157-.464v-1.418a.119.119,0,0,1,.036-.091.126.126,0,0,1,.088-.033h.459a.124.124,0,0,1,.091.033.123.123,0,0,1,.034.091v2.433a.124.124,0,0,1-.034.088.117.117,0,0,1-.091.036h-.427a.118.118,0,0,1-.088-.036.118.118,0,0,1-.036-.088v-.211a.992.992,0,0,1-.856.386A.945.945,0,0,1-798.126,200.686Z" transform="translate(818.991 -191.011)"/>
      <path id="Path_74" data-name="Path 74" class="cls-1" d="M-790.7,200.809a1.032,1.032,0,0,1-.389-.276.468.468,0,0,1-.126-.271.107.107,0,0,1,.034-.082.114.114,0,0,1,.08-.031h.423a.088.088,0,0,1,.072.041l.116.1a.688.688,0,0,0,.206.121.715.715,0,0,0,.255.044.629.629,0,0,0,.335-.08.255.255,0,0,0,.129-.23.239.239,0,0,0-.059-.167.532.532,0,0,0-.212-.118,4.09,4.09,0,0,0-.456-.121,1.378,1.378,0,0,1-.647-.284.651.651,0,0,1-.209-.505.685.685,0,0,1,.124-.389.889.889,0,0,1,.369-.3,1.351,1.351,0,0,1,.585-.116,1.5,1.5,0,0,1,.6.111,1.044,1.044,0,0,1,.384.265.451.451,0,0,1,.131.273.107.107,0,0,1-.033.08.109.109,0,0,1-.079.033h-.387a.1.1,0,0,1-.087-.041c-.024-.017-.063-.049-.116-.1a.668.668,0,0,0-.178-.111.612.612,0,0,0-.237-.041.462.462,0,0,0-.294.082.264.264,0,0,0-.1.216.241.241,0,0,0,.049.154.455.455,0,0,0,.2.116,3.1,3.1,0,0,0,.448.111q.928.18.928.809a.7.7,0,0,1-.317.593,1.5,1.5,0,0,1-.884.227A1.593,1.593,0,0,1-790.7,200.809Z" transform="translate(814.891 -190.943)"/>
      <path id="Path_75" data-name="Path 75" class="cls-1" d="M-846.348,214.883a.122.122,0,0,1-.033-.09v-.3a.124.124,0,0,1,.033-.088.118.118,0,0,1,.09-.036h.134a.33.33,0,0,0,.291-.111.593.593,0,0,0,.075-.327v-2.546a.119.119,0,0,1,.036-.091.126.126,0,0,1,.088-.033h.454a.123.123,0,0,1,.09.033.123.123,0,0,1,.033.091v2.562a.978.978,0,0,1-.253.719,1.007,1.007,0,0,1-.747.255h-.2A.123.123,0,0,1-846.348,214.883Zm.6-4.1a.119.119,0,0,1-.036-.088v-.376a.129.129,0,0,1,.036-.091.115.115,0,0,1,.088-.039h.5a.119.119,0,0,1,.088.036.127.127,0,0,1,.036.093v.376a.119.119,0,0,1-.036.088.12.12,0,0,1-.088.036h-.5A.119.119,0,0,1-845.747,210.783Z" transform="translate(846.381 -197.819)"/>
      <path id="Path_76" data-name="Path 76" class="cls-1" d="M-841.634,215.234a.872.872,0,0,1-.345-.286.674.674,0,0,1-.127-.4.68.68,0,0,1,.284-.567,1.707,1.707,0,0,1,.778-.294l.706-.1v-.109a.454.454,0,0,0-.114-.335.493.493,0,0,0-.361-.113.523.523,0,0,0-.273.062.845.845,0,0,0-.167.126l-.085.085a.078.078,0,0,1-.077.062h-.4a.113.113,0,0,1-.08-.031.105.105,0,0,1-.034-.082.547.547,0,0,1,.127-.291.989.989,0,0,1,.374-.284,1.436,1.436,0,0,1,.624-.121,1.23,1.23,0,0,1,.887.273.959.959,0,0,1,.278.716v1.619a.124.124,0,0,1-.033.088.117.117,0,0,1-.09.036h-.428a.119.119,0,0,1-.088-.036.119.119,0,0,1-.036-.088v-.2a.843.843,0,0,1-.32.27,1.124,1.124,0,0,1-.515.106A1.1,1.1,0,0,1-841.634,215.234Zm1.121-.575a.737.737,0,0,0,.181-.536v-.1l-.515.083q-.593.092-.593.4a.288.288,0,0,0,.136.255.58.58,0,0,0,.327.09A.618.618,0,0,0-840.513,214.659Z" transform="translate(843.941 -199.17)"/>
      <path id="Path_77" data-name="Path 77" class="cls-1" d="M-834.661,215.221a1.034,1.034,0,0,1-.389-.276.466.466,0,0,1-.126-.27.108.108,0,0,1,.033-.083.116.116,0,0,1,.08-.03h.423a.089.089,0,0,1,.072.041l.116.1a.685.685,0,0,0,.206.121.717.717,0,0,0,.255.044.628.628,0,0,0,.335-.08.254.254,0,0,0,.129-.23.241.241,0,0,0-.059-.167.538.538,0,0,0-.212-.118,4.1,4.1,0,0,0-.456-.121,1.376,1.376,0,0,1-.647-.284.652.652,0,0,1-.209-.505.682.682,0,0,1,.124-.389.89.89,0,0,1,.368-.3,1.352,1.352,0,0,1,.585-.116,1.5,1.5,0,0,1,.6.111,1.047,1.047,0,0,1,.384.266.45.45,0,0,1,.132.273.109.109,0,0,1-.033.08.109.109,0,0,1-.08.033h-.387a.1.1,0,0,1-.088-.041c-.024-.017-.063-.049-.116-.1a.678.678,0,0,0-.178-.111.61.61,0,0,0-.237-.041.457.457,0,0,0-.294.083.262.262,0,0,0-.1.216.239.239,0,0,0,.049.154.453.453,0,0,0,.2.116,3.117,3.117,0,0,0,.448.111q.928.18.928.809a.7.7,0,0,1-.317.593,1.5,1.5,0,0,1-.884.227A1.594,1.594,0,0,1-834.661,215.221Z" transform="translate(839.985 -199.17)"/>
      <path id="Path_78" data-name="Path 78" class="cls-1" d="M-828.39,215.252a.119.119,0,0,1-.036-.088v-2.433a.119.119,0,0,1,.036-.091.126.126,0,0,1,.088-.033h.407a.123.123,0,0,1,.09.033.122.122,0,0,1,.034.091v.175a.905.905,0,0,1,.747-.351.816.816,0,0,1,.8.459.918.918,0,0,1,.351-.332.991.991,0,0,1,.49-.127.9.9,0,0,1,.69.289,1.193,1.193,0,0,1,.268.84v1.479a.123.123,0,0,1-.034.088.117.117,0,0,1-.09.036h-.428a.117.117,0,0,1-.087-.036.118.118,0,0,1-.036-.088v-1.438a.668.668,0,0,0-.136-.469.471.471,0,0,0-.358-.144.456.456,0,0,0-.342.147.651.651,0,0,0-.142.466v1.438a.124.124,0,0,1-.033.088.117.117,0,0,1-.09.036h-.433a.119.119,0,0,1-.088-.036.119.119,0,0,1-.036-.088v-1.438a.661.661,0,0,0-.139-.466.468.468,0,0,0-.356-.147.458.458,0,0,0-.343.147.653.653,0,0,0-.142.466v1.438a.126.126,0,0,1-.033.088.118.118,0,0,1-.09.036h-.438A.119.119,0,0,1-828.39,215.252Z" transform="translate(836.132 -199.17)"/>
      <path id="Path_79" data-name="Path 79" class="cls-1" d="M-817.592,210.783a.118.118,0,0,1-.036-.088v-.376a.126.126,0,0,1,.036-.093.119.119,0,0,1,.088-.036h.474a.125.125,0,0,1,.093.036.127.127,0,0,1,.036.093v.376a.116.116,0,0,1-.039.088.13.13,0,0,1-.091.036h-.474A.12.12,0,0,1-817.592,210.783Zm.021,3.119a.119.119,0,0,1-.036-.088v-2.433a.119.119,0,0,1,.036-.091.126.126,0,0,1,.088-.033h.438a.121.121,0,0,1,.088.036.12.12,0,0,1,.036.088v2.433a.121.121,0,0,1-.036.088.121.121,0,0,1-.088.036h-.438A.119.119,0,0,1-817.571,213.9Z" transform="translate(829.968 -197.819)"/>
      <path id="Path_80" data-name="Path 80" class="cls-1" d="M-814.361,215.252a.119.119,0,0,1-.036-.088v-2.433a.119.119,0,0,1,.036-.091.126.126,0,0,1,.088-.033h.428a.125.125,0,0,1,.091.033.125.125,0,0,1,.033.091v.211a1.051,1.051,0,0,1,.861-.387.962.962,0,0,1,.753.309,1.226,1.226,0,0,1,.279.851v1.448a.125.125,0,0,1-.034.088.117.117,0,0,1-.09.036h-.464a.119.119,0,0,1-.088-.036.119.119,0,0,1-.036-.088v-1.418a.684.684,0,0,0-.147-.466.53.53,0,0,0-.42-.167.551.551,0,0,0-.423.17.65.65,0,0,0-.16.464v1.418a.123.123,0,0,1-.034.088.117.117,0,0,1-.09.036h-.459A.119.119,0,0,1-814.361,215.252Z" transform="translate(828.123 -199.17)"/>
      <path id="Path_81" data-name="Path 81" class="cls-1" d="M-804.116,215.32a.119.119,0,0,1-.036-.088v-2.428a.125.125,0,0,1,.036-.093.12.12,0,0,1,.088-.036h.423a.125.125,0,0,1,.093.036.125.125,0,0,1,.036.093v.211a.876.876,0,0,1,.742-.34h.217a.124.124,0,0,1,.09.033.123.123,0,0,1,.033.091v.376a.125.125,0,0,1-.033.088.117.117,0,0,1-.09.036h-.407a.515.515,0,0,0-.381.139.515.515,0,0,0-.139.382v1.412a.121.121,0,0,1-.036.088.121.121,0,0,1-.088.036h-.459A.119.119,0,0,1-804.116,215.32Z" transform="translate(822.275 -199.238)"/>
      <path id="Path_82" data-name="Path 82" class="cls-1" d="M-799.131,210.783a.117.117,0,0,1-.036-.088v-.376a.125.125,0,0,1,.036-.093.119.119,0,0,1,.088-.036h.474a.126.126,0,0,1,.093.036.127.127,0,0,1,.036.093v.376a.115.115,0,0,1-.039.088.128.128,0,0,1-.09.036h-.474A.119.119,0,0,1-799.131,210.783Zm.021,3.119a.118.118,0,0,1-.036-.088v-2.433a.118.118,0,0,1,.036-.091.125.125,0,0,1,.088-.033h.438a.12.12,0,0,1,.088.036.118.118,0,0,1,.036.088v2.433a.119.119,0,0,1-.036.088.12.12,0,0,1-.088.036h-.438A.119.119,0,0,1-799.11,213.9Z" transform="translate(819.429 -197.819)"/>
      <path id="Path_83" data-name="Path 83" class="cls-1" d="M-795.826,215.025a1.2,1.2,0,0,1-.358-.871l-.005-.206.005-.206a1.2,1.2,0,0,1,.358-.871,1.275,1.275,0,0,1,.9-.315,1.49,1.49,0,0,1,.688.145,1.063,1.063,0,0,1,.417.353.82.82,0,0,1,.147.4.1.1,0,0,1-.034.088.129.129,0,0,1-.091.036h-.459a.121.121,0,0,1-.082-.024.243.243,0,0,1-.051-.085.6.6,0,0,0-.2-.283.555.555,0,0,0-.322-.088.52.52,0,0,0-.41.165.78.78,0,0,0-.157.505l-.005.191.005.17q.031.67.567.67a.564.564,0,0,0,.325-.085.591.591,0,0,0,.2-.286.205.205,0,0,1,.049-.082.123.123,0,0,1,.085-.026h.459a.129.129,0,0,1,.091.036.1.1,0,0,1,.034.088.82.82,0,0,1-.145.389,1.078,1.078,0,0,1-.412.358,1.458,1.458,0,0,1-.7.149A1.275,1.275,0,0,1-795.826,215.025Z" transform="translate(817.729 -199.17)"/>
      <path id="Path_84" data-name="Path 84" class="cls-1" d="M-788.979,215.01a1.318,1.318,0,0,1-.358-.939l-.005-.129a1.451,1.451,0,0,1,.338-1.015,1.2,1.2,0,0,1,.936-.371,1.2,1.2,0,0,1,.946.371,1.427,1.427,0,0,1,.333.99v.108a.121.121,0,0,1-.036.088.128.128,0,0,1-.093.036h-1.711v.041a.8.8,0,0,0,.157.477.485.485,0,0,0,.4.188.582.582,0,0,0,.479-.237.283.283,0,0,1,.072-.07.222.222,0,0,1,.088-.012h.454a.126.126,0,0,1,.08.026.085.085,0,0,1,.034.072.48.48,0,0,1-.147.291,1.209,1.209,0,0,1-.42.291,1.524,1.524,0,0,1-.634.124A1.253,1.253,0,0,1-788.979,215.01Zm1.477-1.3v-.01a.738.738,0,0,0-.152-.487.511.511,0,0,0-.415-.183.5.5,0,0,0-.412.183.746.746,0,0,0-.149.487v.01Z" transform="translate(813.821 -199.17)"/>
      <path id="Path_85" data-name="Path 85" class="cls-1" d="M-782.16,217.864a.119.119,0,0,1-.036-.088v-.521a.121.121,0,0,1,.036-.088.121.121,0,0,1,.088-.036h.521a.121.121,0,0,1,.088.036.121.121,0,0,1,.036.088v.521a.124.124,0,0,1-.033.088.117.117,0,0,1-.09.036h-.521A.119.119,0,0,1-782.16,217.864Z" transform="translate(809.742 -201.782)"/>
    </g>
  </g>
</svg>
