<svg xmlns="http://www.w3.org/2000/svg" width="68.681" height="68.681" viewBox="0 0 68.681 68.681">
  <defs>
    <style>
      .cls-1 {
        fill: #b7b7b7;
      }
    </style>
  </defs>
  <g id="Group_254" data-name="Group 254" transform="translate(-990.819 -1323.624)">
    <path id="Path_1537" data-name="Path 1537" class="cls-1" d="M2348.783,2110.312v2.289a1.145,1.145,0,1,0,2.289,0v-2.289a1.145,1.145,0,1,0-2.289,0Z" transform="translate(-1324.768 -759.343)"/>
    <path id="Path_1538" data-name="Path 1538" class="cls-1" d="M2349.928,2197.679a1.145,1.145,0,0,0,1.144-1.145v-2.289a1.145,1.145,0,1,0-2.289,0v2.289A1.145,1.145,0,0,0,2349.928,2197.679Z" transform="translate(-1324.768 -831.829)"/>
    <path id="Path_1539" data-name="Path 1539" class="cls-1" d="M2139.714,1917.05a34.341,34.341,0,1,0,34.34,34.341A34.34,34.34,0,0,0,2139.714,1917.05Zm0,66.392a32.052,32.052,0,1,1,32.051-32.051A32.052,32.052,0,0,1,2139.714,1983.442Z" transform="translate(-1114.554 -593.426)"/>
    <path id="Path_1540" data-name="Path 1540" class="cls-1" d="M2168.9,1950.616a29.719,29.719,0,0,0-19.2,7.059c-.014.011-.019.027-.031.039s-.027.014-.038.025a1.144,1.144,0,0,0-.1.144,1.208,1.208,0,0,0-.13.2.964.964,0,0,0-.077.634,1.19,1.19,0,0,0,.043.218,1.133,1.133,0,0,0,.109.195,1.042,1.042,0,0,0,.088.162c.011.012.028.017.039.029s.014.028.025.04l5.965,5.965a13.542,13.542,0,0,0-.4,2.837l-7.193-7.193c-.011-.011-.026-.014-.036-.024s-.015-.025-.026-.035a1.069,1.069,0,0,0-.164-.092,1.08,1.08,0,0,0-.195-.115,1.138,1.138,0,0,0-.229-.043,1.037,1.037,0,0,0-.194-.02,2.639,2.639,0,0,0-.424.1,145.932,145.932,0,0,1-.347.23c-.01.01-.014.025-.024.035s-.024.015-.035.028a29.734,29.734,0,0,0,41.923,41.929c.011-.009.016-.024.028-.034s.024-.013.034-.023a1.086,1.086,0,0,0,.1-.151,1.176,1.176,0,0,0,.128-.193,1.088,1.088,0,0,0,.056-.208,1.1,1.1,0,0,0,.043-.214,1.2,1.2,0,0,0-.027-.216,1.089,1.089,0,0,0-.041-.214,1.228,1.228,0,0,0-.115-.2,1.126,1.126,0,0,0-.09-.16c-.01-.012-.024-.016-.033-.027s-.013-.025-.024-.035l-6.1-6.1a13.487,13.487,0,0,0,.4-2.838l7.319,7.319c.012.011.028.015.041.026s.017.027.029.038a1.16,1.16,0,0,0,.21.121,1.088,1.088,0,0,0,.121.07,1.12,1.12,0,0,0,.408.08,1.145,1.145,0,0,0,.451-.1,48.212,48.212,0,0,1,.36-.238c.012-.013.016-.029.027-.041s.027-.015.037-.028a29.75,29.75,0,0,0-22.709-48.978Zm0,6.742a1.014,1.014,0,0,1,.156.008c1.108.115,2.289,1.521,3.157,3.778a16,16,0,0,0-6.646,0,8.336,8.336,0,0,1,1.9-3.132A2.174,2.174,0,0,1,2168.9,1957.358Zm0,5.723a13.8,13.8,0,0,1,4.072.635,23.362,23.362,0,0,1,.506,4.694c0,.316-.016.624-.024.936a19.451,19.451,0,0,0-9.108,0c-.007-.229-.024-.458-.024-.7a23.661,23.661,0,0,1,.5-4.922A13.774,13.774,0,0,1,2168.9,1963.081Zm10.864,9.1a16.686,16.686,0,0,0-4.041-2.163c.027-.54.048-1.084.044-1.635a26.833,26.833,0,0,0-.279-3.632,13.631,13.631,0,0,1,4.841,4.484A11.029,11.029,0,0,1,2179.766,1972.186Zm-7.222,13.032a20.408,20.408,0,0,1,.747,3.638,17.707,17.707,0,0,1-8.782,0,20.213,20.213,0,0,1,.764-3.682,15.737,15.737,0,0,0,.652-3.778h5.952A16.2,16.2,0,0,0,2172.544,1985.218Zm7.762,6.08a13.62,13.62,0,0,1-4.814,4.448,26.955,26.955,0,0,0,.278-3.891c0-.465-.025-.916-.047-1.374a16.718,16.718,0,0,0,4.035-2.158A11.039,11.039,0,0,1,2180.306,1991.3Zm-6.825.559a23.683,23.683,0,0,1-.5,4.928,13.357,13.357,0,0,1-8.149,0,23.328,23.328,0,0,1-.506-4.693c0-.316.016-.624.024-.936a19.451,19.451,0,0,0,9.108,0C2173.463,1991.39,2173.481,1991.621,2173.481,1991.857Zm-15.444-3.539a16.677,16.677,0,0,0,4.041,2.164c-.026.54-.048,1.084-.044,1.634a26.874,26.874,0,0,0,.28,3.632,13.628,13.628,0,0,1-4.841-4.483A11.044,11.044,0,0,1,2158.037,1988.317Zm14.493-12.987a15.746,15.746,0,0,0-.653,3.777h-5.952a16.2,16.2,0,0,0-.667-3.822,20.428,20.428,0,0,1-.748-3.638,17.708,17.708,0,0,1,8.782,0A20.288,20.288,0,0,1,2172.53,1975.33Zm-10.45-5.3a16.7,16.7,0,0,0-4.035,2.158,11.042,11.042,0,0,1-.548-2.976,13.622,13.622,0,0,1,4.814-4.448,26.926,26.926,0,0,0-.278,3.892c0,.457.026.912.047,1.37Zm.212,2.386a22.163,22.163,0,0,0,.783,3.558,13.86,13.86,0,0,1,.561,3.133h-2.646a9.29,9.29,0,0,0-1.562-4.13c-.146-.212-.255-.441-.386-.659a13.932,13.932,0,0,1,3.249-1.907Zm-2.835,13.071a9.022,9.022,0,0,0,1.54-4.09h2.64a13.316,13.316,0,0,1-.548,3.09,22.2,22.2,0,0,0-.8,3.608,13.877,13.877,0,0,1-3.271-1.924C2159.157,1985.938,2159.3,1985.709,2159.457,1985.486Zm3.449,13.073a15.488,15.488,0,0,0,1.5,3.642,11.7,11.7,0,0,1-6.3-6.663A15.853,15.853,0,0,0,2162.906,1998.559Zm5.813,4.573c-1.1-.131-2.277-1.531-3.136-3.769a16,16,0,0,0,6.646,0,8.338,8.338,0,0,1-1.9,3.132,2.186,2.186,0,0,1-1.419.638Zm6.167-4.565a15.828,15.828,0,0,0,4.847-3.064,11.2,11.2,0,0,1-2.872,4.471,11.487,11.487,0,0,1-3.467,2.267A15.575,15.575,0,0,0,2174.886,1998.567Zm.625-10.471a22.121,22.121,0,0,0-.782-3.559,13.788,13.788,0,0,1-.561-3.141h2.645a9.292,9.292,0,0,0,1.562,4.13c.146.212.255.441.385.659a13.919,13.919,0,0,1-3.249,1.907Zm2.836-13.076a9.013,9.013,0,0,0-1.54,4.087h-2.64a13.294,13.294,0,0,1,.547-3.09,22.188,22.188,0,0,0,.8-3.608,13.9,13.9,0,0,1,3.271,1.924c-.141.232-.285.461-.441.685Zm-3.449-13.072a15.489,15.489,0,0,0-1.5-3.642,11.694,11.694,0,0,1,6.29,6.663,15.837,15.837,0,0,0-4.791-3.024Zm-11.981-.011a15.833,15.833,0,0,0-4.847,3.064,11.211,11.211,0,0,1,2.872-4.471,11.442,11.442,0,0,1,3.469-2.271A15.624,15.624,0,0,0,2162.917,1961.937Zm22.865,40.053a27.413,27.413,0,0,1-38.492-38.493l8.235,8.235a13.365,13.365,0,0,0,2.02,4.546,7.029,7.029,0,0,1,1.244,3.941c0,.011-.007.022-.007.033a.212.212,0,0,0,.007.031,6.812,6.812,0,0,1-1.211,3.892,13.537,13.537,0,0,0-1.089,1.866l-.009.021a13.331,13.331,0,0,0-1.314,6.067,13.679,13.679,0,0,0,13.07,13.291c.22.01.438.015.656.016h.021a13.692,13.692,0,0,0,9.53-3.808,13.546,13.546,0,0,0,2.917-4.06Zm4.851-4.865-8.356-8.356a13.356,13.356,0,0,0-2.02-4.546,7.038,7.038,0,0,1-1.245-3.941c0-.011.007-.022.007-.033a.19.19,0,0,0-.007-.031,6.817,6.817,0,0,1,1.211-3.892,13.513,13.513,0,0,0,1.09-1.865l.009-.021a13.328,13.328,0,0,0,1.315-6.064,13.754,13.754,0,0,0-26.19-5.438l-4.281-4.28a27.42,27.42,0,0,1,38.466,38.468Z" transform="translate(-1143.742 -622.415)"/>
  </g>
</svg>
