<svg xmlns="http://www.w3.org/2000/svg" width="82" height="62.867" viewBox="0 0 82 62.867">
  <defs>
    <style>
      .cls-1 {
        fill: #464646;
      }
    </style>
  </defs>
  <g id="Group_90" data-name="Group 90" transform="translate(2250.142 -1030.771)">
    <path id="Path_103" data-name="Path 103" class="cls-1" d="M-2172.242,1030.771h-73.8a4.1,4.1,0,0,0-4.1,4.1v49.2a4.1,4.1,0,0,0,2.733,3.848v2.985a2.734,2.734,0,0,0,2.733,2.734h4.1a2.734,2.734,0,0,0,2.733-2.734v-2.733h57.4v2.733a2.734,2.734,0,0,0,2.733,2.734h4.1a2.734,2.734,0,0,0,2.733-2.734v-2.985a4.1,4.1,0,0,0,2.733-3.848v-49.2A4.1,4.1,0,0,0-2172.242,1030.771Zm-75.167,8.2h51.933v41h-51.933Zm2.733,51.933v-2.733h4.1v2.733Zm66.967,0v-2.733h4.1v2.733Zm6.833-6.833a1.367,1.367,0,0,1-1.367,1.366h-73.8a1.367,1.367,0,0,1-1.367-1.366V1082.7h76.533Zm0-4.1h-21.867V1058.1h21.867Zm0-24.6h-21.867v-16.4h21.867Zm0-19.133h-76.533v-1.367a1.367,1.367,0,0,1,1.367-1.367h73.8a1.367,1.367,0,0,1,1.367,1.367Z"/>
    <path id="Path_104" data-name="Path 104" class="cls-1" d="M-1873.311,1109.971h13.667a1.367,1.367,0,0,0,1.367-1.367v-8.2a1.367,1.367,0,0,0-1.367-1.367h-13.667a1.367,1.367,0,0,0-1.367,1.367v8.2A1.368,1.368,0,0,0-1873.311,1109.971Zm1.367-8.2h10.933v5.467h-10.933Z" transform="translate(-315.331 -57.333)"/>
    <path id="Path_105" data-name="Path 105" class="cls-1" d="M-1866.142,1227.037h2.733v2.733h-2.733Z" transform="translate(-322.5 -164.833)"/>
    <path id="Path_106" data-name="Path 106" class="cls-1" d="M-1832.01,1218.505h2.733v2.733h-2.733Z" transform="translate(-351.166 -157.667)"/>
    <path id="Path_107" data-name="Path 107" class="cls-1" d="M-1797.877,1227.037h2.733v2.733h-2.733Z" transform="translate(-379.832 -164.833)"/>
    <path id="Path_108" data-name="Path 108" class="cls-1" d="M-1852.14,1263.571a5.467,5.467,0,0,0,5.466-5.467,5.466,5.466,0,0,0-5.466-5.467,5.467,5.467,0,0,0-5.467,5.467A5.467,5.467,0,0,0-1852.14,1263.571Zm0-8.2a2.733,2.733,0,0,1,2.733,2.733,2.733,2.733,0,0,1-2.733,2.733,2.733,2.733,0,0,1-2.733-2.733A2.733,2.733,0,0,1-1852.14,1255.371Z" transform="translate(-329.668 -186.334)"/>
    <path id="Path_109" data-name="Path 109" class="cls-1" d="M-1941.576,1167.306a1.367,1.367,0,0,0-1.367,1.366v10.933a1.367,1.367,0,0,0,1.367,1.367,1.367,1.367,0,0,0,1.366-1.367v-10.933A1.366,1.366,0,0,0-1941.576,1167.306Z" transform="translate(-257.999 -114.668)"/>
    <path id="Path_110" data-name="Path 110" class="cls-1" d="M-2050.108,1195.623a9.23,9.23,0,0,1-4.857-1.223,11.954,11.954,0,0,0-6.076-1.51,1.367,1.367,0,0,0-1.366,1.367,1.366,1.366,0,0,0,1.366,1.366,9.235,9.235,0,0,1,4.857,1.223,11.949,11.949,0,0,0,6.077,1.51,1.367,1.367,0,0,0,1.366-1.366A1.367,1.367,0,0,0-2050.108,1195.623Z" transform="translate(-157.667 -136.152)"/>
    <path id="Path_111" data-name="Path 111" class="cls-1" d="M-2197.576,1195.622a9.222,9.222,0,0,1,4.853,1.223,11.929,11.929,0,0,0,6.08,1.51,11.942,11.942,0,0,0,6.073-1.5,1.367,1.367,0,0,0,.613-1.834,1.368,1.368,0,0,0-1.834-.613,9.232,9.232,0,0,1-4.852,1.216,9.22,9.22,0,0,1-4.853-1.223,11.938,11.938,0,0,0-6.08-1.51,1.367,1.367,0,0,0-1.367,1.367A1.367,1.367,0,0,0-2197.576,1195.622Z" transform="translate(-42.999 -136.151)"/>
    <path id="Path_112" data-name="Path 112" class="cls-1" d="M-2007.112,1259.646a10.323,10.323,0,0,1-2.417-.253,1.367,1.367,0,0,0-1.646,1.013,1.367,1.367,0,0,0,1.013,1.647,13.008,13.008,0,0,0,3.05.327,1.366,1.366,0,0,0,1.366-1.366A1.367,1.367,0,0,0-2007.112,1259.646Z" transform="translate(-200.663 -191.976)"/>
    <path id="Path_113" data-name="Path 113" class="cls-1" d="M-2171.095,1244.916a11.775,11.775,0,0,0-4.615-.83,11.958,11.958,0,0,0-6.079,1.5,9.229,9.229,0,0,1-4.854,1.23,9.22,9.22,0,0,1-4.853-1.23,11.939,11.939,0,0,0-6.08-1.5,1.367,1.367,0,0,0-1.367,1.367,1.366,1.366,0,0,0,1.367,1.366,9.227,9.227,0,0,1,4.853,1.23,11.932,11.932,0,0,0,6.08,1.5,11.946,11.946,0,0,0,6.079-1.5,9.243,9.243,0,0,1,4.854-1.23,8.945,8.945,0,0,1,3.588.631,1.368,1.368,0,0,0,1.782-.752,1.368,1.368,0,0,0-.751-1.782Z" transform="translate(-42.999 -179.149)"/>
    <path id="Path_114" data-name="Path 114" class="cls-1" d="M-2100.262,1144.423a9.237,9.237,0,0,1-4.857-1.223,11.948,11.948,0,0,0-6.077-1.51,11.943,11.943,0,0,0-6.079,1.51,9.25,9.25,0,0,1-3.622,1.166,1.367,1.367,0,0,0-1.223,1.5,1.366,1.366,0,0,0,1.5,1.223,11.929,11.929,0,0,0,4.566-1.432,9.254,9.254,0,0,1,4.861-1.23,9.237,9.237,0,0,1,4.857,1.223,11.945,11.945,0,0,0,6.077,1.51,1.366,1.366,0,0,0,1.366-1.366A1.366,1.366,0,0,0-2100.262,1144.423Z" transform="translate(-107.513 -93.152)"/>
    <path id="Path_115" data-name="Path 115" class="cls-1" d="M-2197.576,1144.423a9.238,9.238,0,0,1,4.854,1.223c.47.235.943.47,1.465.683a1.39,1.39,0,0,0,.514.1,1.367,1.367,0,0,0,1.368-1.366,1.367,1.367,0,0,0-.854-1.268c-.452-.183-.861-.389-1.271-.594a11.939,11.939,0,0,0-6.076-1.512,1.367,1.367,0,0,0-1.367,1.366A1.367,1.367,0,0,0-2197.576,1144.423Z" transform="translate(-42.999 -93.152)"/>
  </g>
</svg>
