<svg xmlns="http://www.w3.org/2000/svg" width="106.087" height="107.694" viewBox="0 0 106.087 107.694">
  <g id="group_187" data-name="group 187" transform="translate(1630.135 1803.379)">
    <path id="Path_1511" data-name="Path 1511" d="M-1524.048-1778.186v91.006c-.258,0-.516-.007-.774-.007l-104.248.007h-1.064v-94.793h15.1c0,1.416-.025,2.676,0,3.935a11.36,11.36,0,0,0,7.718,10.626,11.224,11.224,0,0,0,14.623-8.02,35.952,35.952,0,0,0,.412-5.375c.023-.36,0-.723,0-1.149h5.981c7.8,0,15.6.01,23.4-.016.742,0,1.011.174.979.952a31.55,31.55,0,0,0,.046,3.7,11.348,11.348,0,0,0,13.695,10.289,11.411,11.411,0,0,0,8.98-11.141c.016-1.225,0-2.451,0-3.66a1.481,1.481,0,0,1,.324-.106c4.7-.007,9.4,0,14.106-.019.517,0,.615.25.62.691C-1524.128-1780.242-1524.082-1779.215-1524.048-1778.186Zm-53.094,83.445h44.292c1.224,0,1.225,0,1.225-1.213q0-29.113,0-58.225c0-1.255,0-1.254-1.253-1.254q-44.206,0-88.413,0c-1.324,0-1.308-.231-1.308,1.284q0,29.07,0,58.14c0,1.266,0,1.266,1.252,1.266Z" transform="translate(0 -8.505)" fill="#42e282"/>
    <path id="Path_1512" data-name="Path 1512" d="M-1502.255-1803.379a20.01,20.01,0,0,1,3.412,1.528,6.968,6.968,0,0,1,3.031,6.038c.008,2.837.046,5.678-.092,8.51-.208,4.3-4.917,7.576-9.084,6.426a7.132,7.132,0,0,1-5.673-6.813,81.6,81.6,0,0,1,.013-8.764,7.213,7.213,0,0,1,5.762-6.746c.192-.048.378-.119.567-.18Z" transform="translate(-47.426)" fill="#bababa"/>
    <path id="Path_1513" data-name="Path 1513" d="M-1590.189-1803.379a20.73,20.73,0,0,1,3.323,1.518,6.919,6.919,0,0,1,3.027,5.88c.048,2.921.1,5.855-.109,8.764a7.356,7.356,0,0,1-9.4,6.256,7.449,7.449,0,0,1-5.368-7.077q-.034-4.212.058-8.424a7.337,7.337,0,0,1,5.765-6.74,3.729,3.729,0,0,0,.47-.177Z" transform="translate(-12.479)" fill="#bababa"/>
    <path id="Path_1514" data-name="Path 1514" d="M-1586.961-1655.172h-11.725c-.028-.263-.077-.511-.077-.759,0-2.98.011-5.96-.015-8.94-.005-.62.15-.852.814-.847,3.467.03,6.934.015,10.4.011.392,0,.746-.022.742.548-.019,3.238-.019,6.476-.031,9.713A.925.925,0,0,1-1586.961-1655.172Z" transform="translate(-12.459 -54.697)" fill="#bababa"/>
    <path id="Path_1515" data-name="Path 1515" d="M-1535.185-1665.647c.305-.022.556-.055.806-.055,3.406,0,6.811.017,10.217-.019.733-.007.91.242.9.935q-.049,4.378,0,8.756c.009.718-.212.921-.924.914q-5.064-.051-10.13,0c-.681.006-.954-.142-.944-.889.04-2.947.015-5.895.019-8.842C-1535.237-1665.1-1535.205-1665.347-1535.185-1665.647Z" transform="translate(-37.698 -54.696)" fill="#42e282"/>
    <path id="Path_1516" data-name="Path 1516" d="M-1567.161-1665.7h4.111c2.293,0,4.586.017,6.878-.011.629-.007.921.111.911.842-.04,2.98-.02,5.96-.013,8.941,0,.472-.015.818-.664.814-3.611-.025-7.222-.014-10.833-.018a2.867,2.867,0,0,1-.39-.064Z" transform="translate(-25.021 -54.699)" fill="#bababa"/>
    <path id="Path_1517" data-name="Path 1517" d="M-1493.652-1655.124h-2.516c-2.835,0-5.669-.018-8.5.013-.63.007-.85-.165-.844-.817.029-3.006.017-6.013.009-9.02,0-.455.049-.762.635-.759,3.664.023,7.329.02,10.993.029a.992.992,0,0,1,.227.083Z" transform="translate(-49.515 -54.701)" fill="#bababa"/>
    <path id="Path_1518" data-name="Path 1518" d="M-1598.671-1695.189h11.8v10.377a6.22,6.22,0,0,1-.692.081c-3.465,0-6.93,0-10.394.008-.481,0-.82-.031-.815-.668.024-3.121.011-6.242.016-9.363A2.426,2.426,0,0,1-1598.671-1695.189Z" transform="translate(-12.461 -42.987)" fill="#bababa"/>
    <path id="Path_1519" data-name="Path 1519" d="M-1567.279-1713.965v-1.1c0-2.837.015-5.675-.011-8.512-.005-.616.155-.863.816-.858q5.159.04,10.318,0c.644,0,.843.22.838.848-.024,2.981-.012,5.962-.009,8.942,0,.425.013.792-.6.79-3.64-.018-7.28-.011-10.92-.018A2.418,2.418,0,0,1-1567.279-1713.965Z" transform="translate(-24.97 -31.368)" fill="#bababa"/>
    <path id="Path_1520" data-name="Path 1520" d="M-1529.282-1713.855c-1.718,0-3.435-.017-5.152.01-.567.009-.819-.122-.814-.756q.042-4.508,0-9.017c0-.586.175-.811.782-.807q5.2.03,10.391,0c.573,0,.82.157.814.776q-.036,4.508,0,9.017c0,.593-.18.8-.784.79C-1525.79-1713.876-1527.536-1713.855-1529.282-1713.855Z" transform="translate(-37.701 -31.371)" fill="#42e282"/>
    <path id="Path_1521" data-name="Path 1521" d="M-1493.656-1713.857h-9.792c-2.055,0-2.056,0-2.056-2.076,0-2.52.021-5.041-.012-7.561-.01-.7.2-.947.922-.94,3.407.031,6.816.024,10.224,0,.582,0,.8.159.8.774-.026,3.065-.011,6.129-.015,9.193C-1493.587-1714.3-1493.624-1714.132-1493.656-1713.857Z" transform="translate(-49.514 -31.367)" fill="#bababa"/>
    <path id="Path_1522" data-name="Path 1522" d="M-1535.153-1684.811v-10.328h11.85a6.359,6.359,0,0,1,.068.661c0,2.981,0,5.962.008,8.943,0,.46.008.84-.65.835-3.64-.023-7.28-.016-10.92-.022A2.089,2.089,0,0,1-1535.153-1684.811Z" transform="translate(-37.739 -43.007)" fill="#bababa"/>
    <path id="Path_1523" data-name="Path 1523" d="M-1567.189-1684.828v-10.362h11.809a3.4,3.4,0,0,1,.085.522c.005,3.065,0,6.129.011,9.194,0,.467-.074.755-.646.752-3.637-.019-7.274-.015-10.911-.022A2,2,0,0,1-1567.189-1684.828Z" transform="translate(-25.01 -42.987)" fill="#bababa"/>
    <path id="Path_1524" data-name="Path 1524" d="M-1493.63-1684.768h-4.292c-2.266,0-4.53-.016-6.8.01-.593.007-.8-.179-.8-.785.024-3.01.014-6.021.008-9.032,0-.415.032-.719.582-.715,3.7.022,7.4.023,11.095.034.049,0,.1.045.2.095Z" transform="translate(-49.516 -42.946)" fill="#bababa"/>
  </g>
</svg>
