<svg xmlns="http://www.w3.org/2000/svg" width="95.405" height="107.496" viewBox="0 0 95.405 107.496">
  <defs>
    <style>
      .cls-1 {
        fill: #23d16a;
      }
    </style>
  </defs>
  <g id="Group_89" data-name="Group 89" transform="translate(1218.696 0.876)">
    <path id="Path_86" data-name="Path 86" class="cls-1" d="M-1177.48,184.85a13.773,13.773,0,0,0,13.772,13.772,13.723,13.723,0,0,0,9.286-3.6,12.743,12.743,0,0,1-7.762,2.622,12.8,12.8,0,0,1-12.8-12.5q0-.145,0-.291v-.006c0-.055,0-.109,0-.164,0-.038,0-.076,0-.113a12.8,12.8,0,0,1,12.8-12.523,12.742,12.742,0,0,1,7.666,2.548,13.721,13.721,0,0,0-9.19-3.515A13.773,13.773,0,0,0-1177.48,184.85Z" transform="translate(-23.528 -98.158)"/>
    <path id="Path_87" data-name="Path 87" class="cls-1" d="M-1163.2,191.181l1.659.485a3.324,3.324,0,0,0,2.539-.277,3.327,3.327,0,0,0,1.6-1.991l.73-2.5a3.333,3.333,0,0,0-.276-2.54,3.325,3.325,0,0,0-1.99-1.6l-.772-.226a3.324,3.324,0,0,0-2.538.277,3.328,3.328,0,0,0-1.6,1.991l-1.738,5.953-.774,2.641-.009.03c.085.163.175.322.268.482a11.253,11.253,0,0,0,1.03,1.471,11.671,11.671,0,0,0,9.289,4.6,11.7,11.7,0,0,0,11.677-11.688,11.7,11.7,0,0,0-8.247-11.16l-.178-.053-.006.02v0l-.117.4-4.3,14.849,2.315.677.642-2.2,1.257-.885,1.045,3.944,2.518.736-1.717-5.719,4.209-3.188-2.465-.721-4.064,3.151,2.839-9.835.01-.036.01-.034a11.371,11.371,0,0,1,5.076,9.461,11.387,11.387,0,0,1-11.368,11.379,11.335,11.335,0,0,1-7.922-3.216l.452-1.541Zm1.666-5.7c.6-2.043,3.143-1.3,2.546.745l-.729,2.5a1.722,1.722,0,0,1-.829,1.032,1.718,1.718,0,0,1-1.315.143l-.888-.26Z" transform="translate(-29.869 -101.581)"/>
    <g id="Group_87" data-name="Group 87" transform="translate(-1218.696 -0.876)">
      <path id="Path_88" data-name="Path 88" class="cls-1" d="M-1122.427,196.17a1.484,1.484,0,0,0-1.568,1.391l-.706,11.808a7.207,7.207,0,0,1-7.185,6.769h-60.03a7.207,7.207,0,0,1-7.185-6.769l-.707-11.808a1.482,1.482,0,0,0-1.567-1.391,1.483,1.483,0,0,0-1.391,1.569l.706,11.808a10.174,10.174,0,0,0,10.144,9.555h60.03a10.174,10.174,0,0,0,10.144-9.555l.706-11.808A1.482,1.482,0,0,0-1122.427,196.17Z" transform="translate(1209.604 -111.605)"/>
      <path id="Path_89" data-name="Path 89" class="cls-1" d="M-1187.781,52.507a12.073,12.073,0,0,1,7.595-3.581,13.1,13.1,0,0,1,7.5,1.654l9.807-9.862,4.159,4.349-.739.8c-.14.153-.272.3-.412.437l-1.912,1.917c-2.12,2.126-4.312,4.324-6.493,6.465a.953.953,0,0,0-.156.182c.009.007.027.066.085.173.048.09.1.18.141.27a1.016,1.016,0,0,0,.908.555h3.051a1.987,1.987,0,0,1,.653-1.255l4.872-4.857,2.574-2.578.571.92c.071.115.135.228.2.338a2.054,2.054,0,0,0,.223.354q3.221,3.382,6.445,6.761a1.023,1.023,0,0,0,.741.317h4.042l-2.438-2.553q-7.5-7.861-15.005-15.717a2.052,2.052,0,0,1-.6-2.244l-.005-.024c-3.972-4-7.873-7.893-12-12.017l-1.5-1.5-.031.033c-.555.572-1.128,1.163-1.729,1.719a2.36,2.36,0,0,1-1.515.556,3.022,3.022,0,0,0-2.3.836c-.587.557-1.185,1.155-1.779,1.778a2.376,2.376,0,0,0-.787,1.961,2.371,2.371,0,0,1-1.114,2.335l-.6.472-5.634-5.651.329-.569a2.209,2.209,0,0,1,2.512-1.185c.37.074,1.454-.37,2.711-1.6,1.29-1.259,1.792-2.4,1.726-2.77a2.677,2.677,0,0,1,1-2.528q3.425-3.4,6.83-6.818l2.331-2.332a16.3,16.3,0,0,1,10.347-4.858,3.873,3.873,0,0,1,.405-.016,1.1,1.1,0,0,1,.4.091l.076.029,1.453.511-1.425,1.15c-.159.13-.307.25-.458.366a22.868,22.868,0,0,0-5.164,5.259c-.9,1.334-1.433,2.507-1.112,3.9a1.6,1.6,0,0,1-.505,1.365c-.55.557-1.112,1.1-1.711,1.683l-.03.029.585.573c.879.86,1.738,1.7,2.588,2.55,3.177,3.171,6.777,6.765,10.245,10.271a.876.876,0,0,0,.152.131l.042-.018a1.817,1.817,0,0,1,2.1.461q12.594,12.039,25.2,24.061a1.025,1.025,0,0,0,.707.283h1.73a1.024,1.024,0,0,0,.705-1.765c-3.463-3.3-6.914-6.6-10.3-9.828l-6.6-6.3c-.165-.158-.337-.309-.525-.476l-.982-.879,4.391-4.38c.2-.2.4-.394.6-.591.486-.476.988-.968,1.444-1.47h0a1.869,1.869,0,0,1,2.087-.541,15.732,15.732,0,0,0,19.43-10.261c.2-.644.34-1.308.488-2.01.063-.3.126-.6.194-.9V13.4l-.165-.783c-.148-.708-.3-1.416-.461-2.121a5.691,5.691,0,0,0-.329-.951,2.705,2.705,0,0,0-1.909-1.675,2.728,2.728,0,0,0-2.425.827c-1.428,1.39-2.858,2.831-4.241,4.224q-.753.759-1.508,1.517c-.124.124-.236.261-.327.371l-.727.841-4.33-4.319.632-.678c.1-.107.247-.271.4-.428l2.229-2.229q1.68-1.679,3.357-3.362a3.033,3.033,0,0,0,1.033-2.786,2.922,2.922,0,0,0-2.148-1.952,21.784,21.784,0,0,0-2.327-.554c-.347-.07-.694-.139-1.038-.215h-3.076l-.514.105c-.418.085-.836.17-1.25.267a15.511,15.511,0,0,0-9.959,7.406,15.445,15.445,0,0,0-1.452,12.273,1.965,1.965,0,0,1-.578,2.192c-1.391,1.362-2.79,2.765-4.142,4.123L-1153.721,27a2.36,2.36,0,0,1-3.36.058c-2.181-2.16-4.352-4.329-6.536-6.512l-2.807-2.8.455-.774c.086-.148.166-.285.25-.421a2.374,2.374,0,0,0,.337-2.017,2.587,2.587,0,0,1,.569-2.7,21.859,21.859,0,0,1,9.982-7.084,2.094,2.094,0,0,0,1.666-1.911c0-.887-.571-1.507-1.687-1.844-7.245-2.184-13.494-1.165-19.1,3.12A21.364,21.364,0,0,0-1176,5.951q-2.55,2.534-5.089,5.08-2.555,2.557-5.116,5.108a3.092,3.092,0,0,0-1.1,2.741,1.4,1.4,0,0,1-.36,1.233,1.388,1.388,0,0,1-1.221.363,3.093,3.093,0,0,0-2.785,1.134c-.434.461-.956,1-1.528,1.524a4.742,4.742,0,0,0-1.457,2.088v1.125a6.344,6.344,0,0,0,1.646,2.2c1.066,1.046,2.12,2.1,3.175,3.163q1.183,1.188,2.372,2.372a2.8,2.8,0,0,0,4.333-.009l.521-.516c.584-.578,1.189-1.175,1.761-1.775a2.7,2.7,0,0,0,.819-2.33,1.585,1.585,0,0,1,.384-1.381,1.262,1.262,0,0,1,1.1-.331,3.417,3.417,0,0,0,2.6-.778l.568-.4.69.639a4.878,4.878,0,0,1,1.041,1.189,17.5,17.5,0,0,0,6.176,6.327c2.417,1.434,2.849,3.185,1.3,4.736l-1.621,1.619q-2.342,2.339-4.673,4.69a1.878,1.878,0,0,1-2.061.545,15.666,15.666,0,0,0-12.652,1.6,15.692,15.692,0,0,0-5.908,6.476,1.026,1.026,0,0,0,.92,1.479h1.329a1.012,1.012,0,0,0,.889-.509A13.089,13.089,0,0,1-1187.781,52.507Zm36.106-22.991q1.078-1.074,2.145-2.141c1.993-1.991,4.053-4.05,6.1-6.043a.8.8,0,0,0,.205-.252.92.92,0,0,0-.118-.31c-2.456-4.851-2.107-9.419,1.038-13.578a11.537,11.537,0,0,1,10.122-4.809c.18.006.358.024.584.048.106.012.224.024.36.036l1.714.16-1.4,1.542c-.146.164-.262.293-.385.415q-.852.854-1.705,1.706-1.367,1.366-2.729,2.736a3.165,3.165,0,0,0-.009,4.84q2.016,2.035,4.049,4.053a3.163,3.163,0,0,0,4.786.026q1.464-1.443,2.911-2.9.791-.792,1.583-1.584c.124-.124.254-.242.415-.389l1.46-1.344.224,1.628a11.33,11.33,0,0,1-.649,5.7,12.272,12.272,0,0,1-6.865,7.065,12.319,12.319,0,0,1-9.887-.185,5.1,5.1,0,0,0-1.2-.463,5.371,5.371,0,0,0-.994.885l-6.742,6.743h0c-.139.139-.283.273-.445.424l-.831.783-4.357-4.171Z" transform="translate(1204.975 0.876)"/>
      <path id="Path_90" data-name="Path 90" class="cls-1" d="M-1202.767,147.987h70.779l-.05.837-.053.885-.573,9.6a1.5,1.5,0,0,0,1.391,1.567,1.5,1.5,0,0,0,1.568-1.391l.637-10.657.05-.837h2.076a3.656,3.656,0,0,0,3.652-3.652V140a3.656,3.656,0,0,0-3.652-3.652h-88.1A3.656,3.656,0,0,0-1218.7,140v4.34a3.73,3.73,0,0,0,.024.405,3.656,3.656,0,0,0,3.628,3.247h2.076l.05.837.637,10.657a1.5,1.5,0,0,0,1.524,1.393,1.5,1.5,0,0,0,1.436-1.57l-.627-10.48-.05-.837Zm76.513-3.653a.689.689,0,0,1-.688.688h-88.1a.685.685,0,0,1-.553-.283.682.682,0,0,1-.135-.405V140a.689.689,0,0,1,.688-.688h88.1a.689.689,0,0,1,.688.688Z" transform="translate(1218.696 -77.455)"/>
    </g>
    <g id="Group_88" data-name="Group 88" transform="translate(-1169.302 81.435)">
      <path id="Path_91" data-name="Path 91" class="cls-1" d="M-1103.235,195.547a1.192,1.192,0,0,1-.358-.87l-.005-.206.005-.206a1.193,1.193,0,0,1,.358-.87,1.27,1.27,0,0,1,.9-.315,1.494,1.494,0,0,1,.688.144,1.069,1.069,0,0,1,.417.353.822.822,0,0,1,.147.4.1.1,0,0,1-.034.088.126.126,0,0,1-.09.036h-.458a.121.121,0,0,1-.082-.023.233.233,0,0,1-.051-.085.605.605,0,0,0-.2-.283.552.552,0,0,0-.322-.087.52.52,0,0,0-.409.165.777.777,0,0,0-.157.5l-.005.191.005.17q.031.669.566.67a.566.566,0,0,0,.325-.085.6.6,0,0,0,.2-.286.2.2,0,0,1,.049-.083.122.122,0,0,1,.085-.025h.458a.128.128,0,0,1,.09.036.1.1,0,0,1,.034.088.823.823,0,0,1-.145.389,1.09,1.09,0,0,1-.412.358,1.46,1.46,0,0,1-.695.149A1.272,1.272,0,0,1-1103.235,195.547Z" transform="translate(1103.599 -192.153)"/>
      <path id="Path_92" data-name="Path 92" class="cls-1" d="M-1096.27,195.621a1.24,1.24,0,0,1-.273-.85v-1.447a.117.117,0,0,1,.036-.09.125.125,0,0,1,.087-.033h.464a.121.121,0,0,1,.088.036.12.12,0,0,1,.036.088v1.416q0,.633.551.634a.549.549,0,0,0,.425-.17.656.656,0,0,0,.157-.463v-1.416a.117.117,0,0,1,.036-.09.126.126,0,0,1,.088-.033h.458a.123.123,0,0,1,.09.033.122.122,0,0,1,.034.09v2.431a.123.123,0,0,1-.034.088.117.117,0,0,1-.09.036h-.427a.119.119,0,0,1-.088-.036.119.119,0,0,1-.036-.088v-.211a.99.99,0,0,1-.855.387A.946.946,0,0,1-1096.27,195.621Z" transform="translate(1099.571 -192.222)"/>
      <path id="Path_93" data-name="Path 93" class="cls-1" d="M-1088.852,195.742a1.028,1.028,0,0,1-.389-.275.467.467,0,0,1-.126-.27.108.108,0,0,1,.033-.083.114.114,0,0,1,.08-.031h.422a.089.089,0,0,1,.072.042c.017.014.056.046.116.1a.688.688,0,0,0,.206.121.707.707,0,0,0,.255.044.627.627,0,0,0,.335-.079.255.255,0,0,0,.129-.23.235.235,0,0,0-.059-.167.529.529,0,0,0-.211-.119,4.179,4.179,0,0,0-.456-.121,1.37,1.37,0,0,1-.646-.283.652.652,0,0,1-.208-.505.682.682,0,0,1,.123-.388.889.889,0,0,1,.368-.3,1.355,1.355,0,0,1,.584-.116,1.485,1.485,0,0,1,.6.111,1.049,1.049,0,0,1,.384.265.45.45,0,0,1,.131.273.108.108,0,0,1-.033.079.109.109,0,0,1-.08.033h-.386a.1.1,0,0,1-.088-.041c-.024-.017-.063-.049-.116-.1a.675.675,0,0,0-.178-.111.619.619,0,0,0-.237-.041.462.462,0,0,0-.293.082.265.265,0,0,0-.1.217.24.24,0,0,0,.049.154.448.448,0,0,0,.2.116,3.121,3.121,0,0,0,.448.111q.927.18.927.808a.7.7,0,0,1-.317.592,1.494,1.494,0,0,1-.883.227A1.585,1.585,0,0,1-1088.852,195.742Z" transform="translate(1095.475 -192.153)"/>
      <path id="Path_94" data-name="Path 94" class="cls-1" d="M-1082.48,194.332a.993.993,0,0,1-.237-.718V192.45h-.407a.119.119,0,0,1-.088-.036.118.118,0,0,1-.036-.088v-.3a.119.119,0,0,1,.036-.088.121.121,0,0,1,.088-.036h.407v-.855a.118.118,0,0,1,.036-.09.124.124,0,0,1,.088-.033h.427a.122.122,0,0,1,.09.033.122.122,0,0,1,.034.09v.855h.644a.121.121,0,0,1,.088.036.12.12,0,0,1,.036.088v.3a.118.118,0,0,1-.036.088.119.119,0,0,1-.088.036h-.644v1.107a.6.6,0,0,0,.077.335.283.283,0,0,0,.252.113h.36a.122.122,0,0,1,.09.034.121.121,0,0,1,.033.09v.324a.124.124,0,0,1-.033.088.117.117,0,0,1-.09.036h-.422A.938.938,0,0,1-1082.48,194.332Z" transform="translate(1091.981 -190.921)"/>
      <path id="Path_95" data-name="Path 95" class="cls-1" d="M-1077.366,195.552a1.2,1.2,0,0,1-.355-.855l-.005-.227.005-.227a1.188,1.188,0,0,1,.36-.852,1.314,1.314,0,0,1,.932-.312,1.306,1.306,0,0,1,.927.312,1.189,1.189,0,0,1,.36.852c0,.042.005.117.005.227s0,.185-.005.227a1.2,1.2,0,0,1-.355.855,1.313,1.313,0,0,1-.932.309A1.321,1.321,0,0,1-1077.366,195.552Zm1.357-.382a.783.783,0,0,0,.157-.5q.005-.051.005-.2c0-.1,0-.166-.005-.2a.784.784,0,0,0-.16-.5.521.521,0,0,0-.417-.173.527.527,0,0,0-.422.173.785.785,0,0,0-.16.5l-.005.2.005.2a.774.774,0,0,0,.16.5.531.531,0,0,0,.422.17A.524.524,0,0,0-1076.009,195.171Z" transform="translate(1088.83 -192.153)"/>
      <path id="Path_96" data-name="Path 96" class="cls-1" d="M-1070.323,195.773a.117.117,0,0,1-.036-.088v-2.431a.116.116,0,0,1,.036-.09.126.126,0,0,1,.088-.033h.406a.123.123,0,0,1,.09.033.121.121,0,0,1,.034.09v.175a.905.905,0,0,1,.747-.35.815.815,0,0,1,.8.458.92.92,0,0,1,.35-.332.993.993,0,0,1,.489-.126.9.9,0,0,1,.69.288,1.191,1.191,0,0,1,.268.839v1.478a.124.124,0,0,1-.033.088.119.119,0,0,1-.09.036h-.428a.118.118,0,0,1-.087-.036.118.118,0,0,1-.036-.088v-1.436a.668.668,0,0,0-.137-.469.468.468,0,0,0-.358-.145.456.456,0,0,0-.342.147.65.65,0,0,0-.142.466v1.436a.122.122,0,0,1-.034.088.116.116,0,0,1-.09.036h-.432a.119.119,0,0,1-.088-.036.117.117,0,0,1-.036-.088v-1.436a.659.659,0,0,0-.139-.466.466.466,0,0,0-.355-.147.458.458,0,0,0-.343.147.654.654,0,0,0-.141.466v1.436a.125.125,0,0,1-.033.088.118.118,0,0,1-.09.036h-.438A.119.119,0,0,1-1070.323,195.773Z" transform="translate(1084.624 -192.153)"/>
      <path id="Path_97" data-name="Path 97" class="cls-1" d="M-1103.311,210.174a.12.12,0,0,1-.036-.088v-2.431a.117.117,0,0,1,.036-.09.124.124,0,0,1,.088-.033h.407a.121.121,0,0,1,.09.033.121.121,0,0,1,.034.09v.175a.9.9,0,0,1,.747-.351.815.815,0,0,1,.8.459.925.925,0,0,1,.35-.333.994.994,0,0,1,.489-.126.9.9,0,0,1,.69.288,1.193,1.193,0,0,1,.268.839v1.478a.124.124,0,0,1-.034.088.117.117,0,0,1-.09.036h-.427a.118.118,0,0,1-.087-.036.117.117,0,0,1-.036-.088v-1.437a.668.668,0,0,0-.137-.469.471.471,0,0,0-.358-.145.459.459,0,0,0-.343.147.653.653,0,0,0-.142.466v1.437a.124.124,0,0,1-.033.088.117.117,0,0,1-.09.036h-.433a.119.119,0,0,1-.088-.036.119.119,0,0,1-.036-.088v-1.437a.663.663,0,0,0-.139-.466.47.47,0,0,0-.356-.147.459.459,0,0,0-.343.147.653.653,0,0,0-.141.466v1.437a.124.124,0,0,1-.034.088.117.117,0,0,1-.09.036h-.438A.119.119,0,0,1-1103.311,210.174Z" transform="translate(1103.455 -200.374)"/>
      <path id="Path_98" data-name="Path 98" class="cls-1" d="M-1092.424,209.931a1.316,1.316,0,0,1-.358-.937l-.005-.129a1.451,1.451,0,0,1,.337-1.015,1.2,1.2,0,0,1,.935-.371,1.2,1.2,0,0,1,.945.371,1.423,1.423,0,0,1,.332.988v.108a.118.118,0,0,1-.036.088.123.123,0,0,1-.093.036h-1.71v.042a.8.8,0,0,0,.157.476.484.484,0,0,0,.4.188.582.582,0,0,0,.479-.237.278.278,0,0,1,.072-.07.212.212,0,0,1,.088-.013h.453a.128.128,0,0,1,.08.025.086.086,0,0,1,.033.072.479.479,0,0,1-.147.291,1.221,1.221,0,0,1-.42.291,1.523,1.523,0,0,1-.633.124A1.25,1.25,0,0,1-1092.424,209.931Zm1.475-1.3v-.01a.737.737,0,0,0-.152-.487.51.51,0,0,0-.415-.183.5.5,0,0,0-.412.183.746.746,0,0,0-.149.487v.01Z" transform="translate(1097.427 -200.374)"/>
      <path id="Path_99" data-name="Path 99" class="cls-1" d="M-1085.512,210.156a.869.869,0,0,1-.345-.286.674.674,0,0,1-.127-.4.679.679,0,0,1,.283-.566,1.7,1.7,0,0,1,.778-.294l.706-.1V208.4a.453.453,0,0,0-.113-.335.494.494,0,0,0-.36-.113.527.527,0,0,0-.273.062.879.879,0,0,0-.167.126l-.085.085a.079.079,0,0,1-.077.062h-.4a.114.114,0,0,1-.08-.031.107.107,0,0,1-.033-.082.545.545,0,0,1,.126-.291.986.986,0,0,1,.373-.283,1.436,1.436,0,0,1,.624-.121,1.227,1.227,0,0,1,.885.273.958.958,0,0,1,.278.716v1.617a.124.124,0,0,1-.034.088.117.117,0,0,1-.09.036h-.427a.119.119,0,0,1-.088-.036.119.119,0,0,1-.036-.088v-.2a.846.846,0,0,1-.319.27,1.123,1.123,0,0,1-.515.106A1.094,1.094,0,0,1-1085.512,210.156Zm1.12-.574a.737.737,0,0,0,.181-.536v-.1l-.516.082q-.592.093-.592.4a.288.288,0,0,0,.136.255.58.58,0,0,0,.327.09A.618.618,0,0,0-1084.392,209.582Z" transform="translate(1093.543 -200.374)"/>
      <path id="Path_100" data-name="Path 100" class="cls-1" d="M-1078.663,208.941a.12.12,0,0,1-.036-.088v-3.41a.119.119,0,0,1,.036-.09.126.126,0,0,1,.088-.033h.432a.123.123,0,0,1,.09.033.124.124,0,0,1,.033.09v3.41a.124.124,0,0,1-.033.088.117.117,0,0,1-.09.036h-.432A.119.119,0,0,1-1078.663,208.941Z" transform="translate(1089.385 -199.141)"/>
      <path id="Path_101" data-name="Path 101" class="cls-1" d="M-1075.555,212.784a.12.12,0,0,1-.036-.088v-.52a.12.12,0,0,1,.036-.088.119.119,0,0,1,.088-.036h.52a.119.119,0,0,1,.087.036.119.119,0,0,1,.036.088v.52a.123.123,0,0,1-.034.088.117.117,0,0,1-.09.036h-.52A.119.119,0,0,1-1075.555,212.784Z" transform="translate(1087.611 -202.984)"/>
    </g>
  </g>
</svg>
