<svg xmlns="http://www.w3.org/2000/svg" width="186.741" height="96.692" viewBox="0 0 186.741 96.692">
  <g id="group_186" data-name="group 186" transform="translate(2098.845 1826.102)">
    <path id="Path_1490" data-name="Path 1490" d="M-2027.147-1696.709Z" transform="translate(-37.725 -68.083)" fill="#42e282"/>
    <path id="Path_1491" data-name="Path 1491" d="M-2003.735-1696.709h0Z" transform="translate(-48.397 -68.083)" fill="#42e282"/>
    <path id="Path_1492" data-name="Path 1492" d="M-2007.551-1696.709Z" transform="translate(-48.036 -68.083)" fill="#42e282"/>
    <g id="Group_177" data-name="Group 177" transform="translate(-2098.845 -1775.844)">
      <g id="Group_174" data-name="Group 174" transform="translate(32.347 14.1)">
        <path id="Path_1493" data-name="Path 1493" d="M-2030.577-1677.192a13.059,13.059,0,0,0,13.044,13.044,13,13,0,0,0,8.777-3.413,12.147,12.147,0,0,1-7.355,2.479,12.136,12.136,0,0,1-12.109-11.825v-.284h0v-.284a12.117,12.117,0,0,1,12.109-11.866,12.194,12.194,0,0,1,7.274,2.4,13,13,0,0,0-8.7-3.332A13.093,13.093,0,0,0-2030.577-1677.192Z" transform="translate(2030.577 1690.277)" fill="#42e282"/>
        <path id="Path_1494" data-name="Path 1494" d="M-2018.006-1671.672l1.585.447a3.22,3.22,0,0,0,2.4-.244,3.3,3.3,0,0,0,1.5-1.869l.691-2.357a3.22,3.22,0,0,0-.244-2.4,3.291,3.291,0,0,0-1.869-1.5,4.914,4.914,0,0,0-.731-.2,3.223,3.223,0,0,0-2.4.244,3.294,3.294,0,0,0-1.5,1.869l-1.666,5.649-.731,2.519v.041a4.412,4.412,0,0,0,.244.447,10.616,10.616,0,0,0,.975,1.382,11.049,11.049,0,0,0,8.777,4.348,11.065,11.065,0,0,0,11.053-11.052,11.073,11.073,0,0,0-7.8-10.565c-.041,0-.122-.041-.163-.041h0l-.122.366-4.063,14.06,2.195.65.609-2.072,1.178-.854.975,3.738,2.4.691-1.625-5.4,3.982-3.007-2.316-.691-3.86,2.967,2.682-9.305v-.082a10.814,10.814,0,0,1,4.795,8.94,10.787,10.787,0,0,1-10.769,10.769,10.842,10.842,0,0,1-7.518-3.048l.447-1.463Zm1.585-5.364c.569-1.951,2.967-1.219,2.4.69l-.691,2.357a1.572,1.572,0,0,1-.772.975,1.674,1.674,0,0,1-1.26.122l-.854-.243Z" transform="translate(2025.523 1687.479)" fill="#42e282"/>
      </g>
      <g id="Group_176" data-name="Group 176">
        <g id="Group_175" data-name="Group 175">
          <path id="Path_1495" data-name="Path 1495" d="M-2009.017-1668.673a1.435,1.435,0,0,0-1.5,1.3l-.65,11.175a6.84,6.84,0,0,1-6.786,6.421h-56.849a6.782,6.782,0,0,1-6.786-6.421l-.65-11.175a1.36,1.36,0,0,0-1.5-1.3,1.383,1.383,0,0,0-1.3,1.5l.65,11.175a9.618,9.618,0,0,0,9.591,9.062h56.849a9.617,9.617,0,0,0,9.59-9.062l.65-11.175A1.361,1.361,0,0,0-2009.017-1668.673Z" transform="translate(2091.588 1693.014)" fill="#42e282"/>
          <path id="Path_1496" data-name="Path 1496" d="M-2011.926-1720.035h-83.466a3.451,3.451,0,0,0-3.454,3.454v4.145a1.123,1.123,0,0,0,.041.366,3.509,3.509,0,0,0,3.454,3.088h1.951l.041.813.61,10.077a1.389,1.389,0,0,0,1.422,1.3,1.391,1.391,0,0,0,1.341-1.5l-.609-9.915-.041-.813h73.876l-.041.813-.609,9.915a1.465,1.465,0,0,0,1.3,1.5,1.466,1.466,0,0,0,1.5-1.3l.609-10.077.041-.813h1.951a3.451,3.451,0,0,0,3.454-3.454v-4.1A3.367,3.367,0,0,0-2011.926-1720.035Zm.65,7.6a.642.642,0,0,1-.65.65h-83.384a.7.7,0,0,1-.528-.284.66.66,0,0,1-.122-.366v-4.1a.642.642,0,0,1,.65-.65h83.384a.642.642,0,0,1,.65.65v4.1Z" transform="translate(2098.845 1720.035)" fill="#42e282"/>
        </g>
      </g>
    </g>
    <g id="Group_181" data-name="Group 181" transform="translate(-2052.725 -1826.102)">
      <g id="Group_178" data-name="Group 178" transform="translate(32.347 14.1)">
        <path id="Path_1497" data-name="Path 1497" d="M-1933.243-1783.259a13.059,13.059,0,0,0,13.044,13.044,13.007,13.007,0,0,0,8.777-3.414,12.148,12.148,0,0,1-7.355,2.479,12.136,12.136,0,0,1-12.11-11.825v-.284h0v-.285a12.116,12.116,0,0,1,12.11-11.865,12.2,12.2,0,0,1,7.274,2.4,13.006,13.006,0,0,0-8.7-3.332A13.094,13.094,0,0,0-1933.243-1783.259Z" transform="translate(1933.243 1796.344)" fill="#42e282"/>
        <path id="Path_1498" data-name="Path 1498" d="M-1920.671-1777.739l1.584.447a3.223,3.223,0,0,0,2.4-.244,3.294,3.294,0,0,0,1.5-1.869l.691-2.357a3.221,3.221,0,0,0-.244-2.4,3.294,3.294,0,0,0-1.869-1.5,4.926,4.926,0,0,0-.731-.2,3.223,3.223,0,0,0-2.4.243,3.3,3.3,0,0,0-1.5,1.869l-1.666,5.648-.732,2.519v.041a4.418,4.418,0,0,0,.244.447,10.594,10.594,0,0,0,.975,1.382,11.048,11.048,0,0,0,8.777,4.348,11.064,11.064,0,0,0,11.053-11.052,11.073,11.073,0,0,0-7.8-10.566c-.041,0-.122-.041-.163-.041h0l-.122.366-4.063,14.06,2.194.65.609-2.073,1.178-.853.975,3.739,2.4.691-1.625-5.4,3.982-3.007-2.316-.691-3.86,2.967,2.682-9.306v-.081a10.815,10.815,0,0,1,4.8,8.94,10.788,10.788,0,0,1-10.769,10.769,10.842,10.842,0,0,1-7.517-3.048l.447-1.463Zm1.584-5.364c.569-1.95,2.967-1.219,2.4.691l-.691,2.357a1.568,1.568,0,0,1-.772.976,1.674,1.674,0,0,1-1.26.122l-.853-.244Z" transform="translate(1928.189 1793.547)" fill="#42e282"/>
      </g>
      <path id="Path_1499" data-name="Path 1499" d="M-1929.812-1802.776Z" transform="translate(1963.785 1813.828)" fill="#42e282"/>
      <path id="Path_1500" data-name="Path 1500" d="M-1906.4-1802.776h0Z" transform="translate(1953.114 1813.828)" fill="#42e282"/>
      <path id="Path_1501" data-name="Path 1501" d="M-1910.216-1802.776Z" transform="translate(1953.475 1813.828)" fill="#42e282"/>
      <g id="Group_180" data-name="Group 180">
        <g id="Group_179" data-name="Group 179">
          <path id="Path_1502" data-name="Path 1502" d="M-1911.682-1774.74a1.435,1.435,0,0,0-1.5,1.3l-.65,11.175a6.84,6.84,0,0,1-6.786,6.42h-56.849a6.782,6.782,0,0,1-6.786-6.42l-.65-11.175a1.36,1.36,0,0,0-1.5-1.3,1.383,1.383,0,0,0-1.3,1.5l.65,11.175a9.617,9.617,0,0,0,9.59,9.061h56.849a9.617,9.617,0,0,0,9.59-9.061l.65-11.175A1.36,1.36,0,0,0-1911.682-1774.74Z" transform="translate(1994.254 1799.081)" fill="#42e282"/>
          <path id="Path_1503" data-name="Path 1503" d="M-1914.592-1826.1h-83.465a3.451,3.451,0,0,0-3.454,3.454v4.145a1.125,1.125,0,0,0,.041.365,3.51,3.51,0,0,0,3.454,3.089h1.951l.041.813.609,10.078a1.389,1.389,0,0,0,1.422,1.3,1.392,1.392,0,0,0,1.341-1.5l-.61-9.915-.04-.813h73.875l-.041.813-.609,9.915a1.465,1.465,0,0,0,1.3,1.5,1.465,1.465,0,0,0,1.5-1.3l.61-10.078.04-.813h1.951a3.451,3.451,0,0,0,3.454-3.454v-4.1A3.367,3.367,0,0,0-1914.592-1826.1Zm.651,7.6a.642.642,0,0,1-.651.65h-83.384a.7.7,0,0,1-.528-.285.655.655,0,0,1-.122-.365v-4.1a.642.642,0,0,1,.65-.65h83.384a.642.642,0,0,1,.651.65v4.1Z" transform="translate(2001.511 1826.102)" fill="#42e282"/>
        </g>
      </g>
    </g>
    <path id="Path_1504" data-name="Path 1504" d="M-1823.6-1695.963Z" transform="translate(-144.825 -68.475)" fill="#42e282"/>
    <path id="Path_1505" data-name="Path 1505" d="M-1800.19-1695.963h0Z" transform="translate(-155.496 -68.475)" fill="#42e282"/>
    <path id="Path_1506" data-name="Path 1506" d="M-1804.005-1695.963Z" transform="translate(-155.136 -68.475)" fill="#42e282"/>
    <g id="Group_185" data-name="Group 185" transform="translate(-2002.399 -1775.491)">
      <g id="Group_182" data-name="Group 182" transform="translate(32.347 14.101)">
        <path id="Path_1507" data-name="Path 1507" d="M-1827.032-1676.447a13.059,13.059,0,0,0,13.044,13.044,13,13,0,0,0,8.777-3.414,12.147,12.147,0,0,1-7.355,2.479,12.136,12.136,0,0,1-12.109-11.825v-.285h0v-.284a12.116,12.116,0,0,1,12.109-11.866,12.2,12.2,0,0,1,7.274,2.4,13,13,0,0,0-8.7-3.332A13.094,13.094,0,0,0-1827.032-1676.447Z" transform="translate(1827.032 1689.531)" fill="#42e282"/>
        <path id="Path_1508" data-name="Path 1508" d="M-1814.46-1670.926l1.584.447a3.224,3.224,0,0,0,2.4-.244,3.292,3.292,0,0,0,1.5-1.869l.691-2.357a3.223,3.223,0,0,0-.244-2.4,3.3,3.3,0,0,0-1.869-1.5,4.973,4.973,0,0,0-.732-.2,3.224,3.224,0,0,0-2.4.244,3.3,3.3,0,0,0-1.5,1.869l-1.666,5.649-.732,2.519v.04a4.515,4.515,0,0,0,.244.447,10.618,10.618,0,0,0,.975,1.382,11.048,11.048,0,0,0,8.777,4.348,11.065,11.065,0,0,0,11.053-11.053,11.073,11.073,0,0,0-7.8-10.565c-.041,0-.122-.041-.162-.041h0l-.122.366-4.064,14.06,2.194.65.609-2.073,1.178-.853.975,3.739,2.4.691-1.625-5.4,3.982-3.007-2.316-.69-3.86,2.966,2.682-9.306v-.081a10.814,10.814,0,0,1,4.8,8.94,10.787,10.787,0,0,1-10.769,10.768,10.84,10.84,0,0,1-7.517-3.048l.447-1.463Zm1.584-5.364c.569-1.95,2.967-1.219,2.4.691l-.691,2.357a1.57,1.57,0,0,1-.772.975,1.673,1.673,0,0,1-1.26.122l-.853-.244Z" transform="translate(1821.978 1686.734)" fill="#42e282"/>
      </g>
      <g id="Group_184" data-name="Group 184">
        <g id="Group_183" data-name="Group 183">
          <path id="Path_1509" data-name="Path 1509" d="M-1805.472-1667.928a1.435,1.435,0,0,0-1.5,1.3l-.65,11.174a6.84,6.84,0,0,1-6.786,6.421h-56.849a6.783,6.783,0,0,1-6.786-6.421l-.65-11.174a1.361,1.361,0,0,0-1.5-1.3,1.383,1.383,0,0,0-1.3,1.5l.65,11.175a9.618,9.618,0,0,0,9.59,9.062h56.849a9.617,9.617,0,0,0,9.59-9.062l.65-11.175A1.361,1.361,0,0,0-1805.472-1667.928Z" transform="translate(1888.043 1692.269)" fill="#42e282"/>
          <path id="Path_1510" data-name="Path 1510" d="M-1808.381-1719.29h-83.465a3.451,3.451,0,0,0-3.454,3.454v4.145a1.122,1.122,0,0,0,.041.366,3.509,3.509,0,0,0,3.454,3.088h1.951l.04.813.61,10.078a1.389,1.389,0,0,0,1.422,1.3,1.392,1.392,0,0,0,1.341-1.5l-.61-9.916-.041-.812h73.876l-.041.812-.609,9.916a1.466,1.466,0,0,0,1.3,1.5,1.465,1.465,0,0,0,1.5-1.3l.61-10.078.04-.813h1.951a3.451,3.451,0,0,0,3.454-3.454v-4.1A3.367,3.367,0,0,0-1808.381-1719.29Zm.651,7.6a.642.642,0,0,1-.651.65h-83.384a.694.694,0,0,1-.528-.284.658.658,0,0,1-.122-.366v-4.1a.642.642,0,0,1,.65-.65h83.384a.642.642,0,0,1,.65.65v4.1Z" transform="translate(1895.3 1719.29)" fill="#42e282"/>
        </g>
      </g>
    </g>
  </g>
</svg>
