<svg id="Group_50" data-name="Group 50" xmlns="http://www.w3.org/2000/svg" width="157.604" height="55.298" viewBox="0 0 157.604 55.298">
  <defs>
    <style>
      .cls-1 {
        fill: #23d16a;
      }
    </style>
  </defs>
  <g id="Group_48" data-name="Group 48" transform="translate(0 21.265)">
    <g id="Group_47" data-name="Group 47" transform="translate(0 0)">
      <path id="Path_4" data-name="Path 4" class="cls-1" d="M873.513,212.736h3.081v3.1h-3.081v7.491a3.08,3.08,0,0,0,3.081,3.081v2.867c-1.989,0-4.042-.144-5.641-1.743a5.941,5.941,0,0,1-1.743-4.208V206.02h4.3v6.716Z" transform="translate(-779.291 -206.018)"/>
      <path id="Path_5" data-name="Path 5" class="cls-1" d="M1103.767,235.313a5.931,5.931,0,0,0-4.208-1.743h-1.433a5.925,5.925,0,0,0-3.332,1.024V233.57h-2.613v16.543h4.3V239.521c0-3.786,4.729-3.786,4.729,0v10.592h4.3V239.521A5.932,5.932,0,0,0,1103.767,235.313Z" transform="translate(-947.906 -226.852)"/>
      <path id="Path_6" data-name="Path 6" class="cls-1" d="M903.9,244.17v-4.641a5.951,5.951,0,0,1,5.951-5.948h1.433a5.951,5.951,0,0,1,5.951,5.948h-4.3c0-3.793-4.729-3.793-4.729,0v4.641c0,3.793,4.729,3.793,4.729,0h4.3a5.951,5.951,0,0,1-5.951,5.951h-1.433a5.951,5.951,0,0,1-5.951-5.951Z" transform="translate(-805.524 -226.859)"/>
      <path id="Path_7" data-name="Path 7" class="cls-1" d="M975.159,229.269V218.677c0-3.793-4.729-3.793-4.729,0v10.592h-4.3V206.01h4.3v6.95a5.942,5.942,0,0,1,1.648-.232h1.433a5.951,5.951,0,0,1,5.951,5.948v10.592Z" transform="translate(-852.584 -206.01)"/>
      <path id="Path_8" data-name="Path 8" class="cls-1" d="M843.89,233.57v16.54h-4.3V233.57Z" transform="translate(-756.891 -226.852)"/>
      <path id="Path_9" data-name="Path 9" class="cls-1" d="M504.648,247.113H506.3a3.08,3.08,0,0,0,3.081-3.081v-4.642c0-3.793-4.729-3.793-4.729,0v7.723Zm9.032-3.084a5.951,5.951,0,0,1-5.948,5.951H504.65v10.807h-4.3v-21.4a5.951,5.951,0,0,1,5.951-5.951h1.433a5.951,5.951,0,0,1,5.951,5.951l0,4.639Z" transform="translate(-500.35 -226.753)"/>
      <path id="Path_10" data-name="Path 10" class="cls-1" d="M689.96,247.113h1.648a3.08,3.08,0,0,0,3.081-3.081v-4.642c0-3.793-4.729-3.793-4.729,0v7.723Zm9.032-3.084a5.951,5.951,0,0,1-5.948,5.951H689.96v10.807h-4.3v-21.4a5.951,5.951,0,0,1,5.951-5.951h1.433a5.951,5.951,0,0,1,5.951,5.951l0,4.639Z" transform="translate(-640.486 -226.753)"/>
      <path id="Path_11" data-name="Path 11" class="cls-1" d="M621.81,239.388a5.951,5.951,0,0,1,5.951-5.948h1.433a5.951,5.951,0,0,1,5.948,5.948v2.867h-9.029v1.775c0,2.852,3.342,4.234,4.532,1.092h4.4a5.954,5.954,0,0,1-5.848,4.858h-1.433a5.951,5.951,0,0,1-5.951-5.951v-4.642Zm4.3,0h4.729c0-3.793-4.729-3.793-4.729,0Z" transform="translate(-592.201 -226.753)"/>
      <path id="Path_12" data-name="Path 12" class="cls-1" d="M1028.87,239.518a5.951,5.951,0,0,1,5.951-5.948h1.433a5.951,5.951,0,0,1,5.948,5.948v2.867h-9.03v1.775c0,2.852,3.342,4.234,4.532,1.092h4.4a5.954,5.954,0,0,1-5.848,4.858h-1.433a5.951,5.951,0,0,1-5.951-5.951v-4.642Zm4.3,0h4.729c0-3.793-4.729-3.793-4.729,0Z" transform="translate(-900.029 -226.852)"/>
      <g id="Group_46" data-name="Group 46" transform="translate(65.798)">
        <path id="Path_13" data-name="Path 13" class="cls-1" d="M770.26,229.227V206.01h4.3v14.161l5.383-7.423h4.578l-5.612,7.557,5.8,8.925h-4.678l-3.759-6.224-1.709,2.143v4.081h-4.3Z" transform="translate(-770.26 -206.01)"/>
      </g>
      <path id="Path_14" data-name="Path 14" class="cls-1" d="M575.879,235.183a5.931,5.931,0,0,0-4.208-1.743h-1.433a5.974,5.974,0,0,0-3.332,1.031V233.44H564.29v16.543h4.3V239.391c0-3.786,4.729-3.786,4.729,0h4.3A5.92,5.92,0,0,0,575.879,235.183Z" transform="translate(-548.703 -226.753)"/>
    </g>
    <rect id="Rectangle_35" data-name="Rectangle 35" class="cls-1" width="4.303" height="3.101" transform="translate(82.699 0.005)"/>
  </g>
  <g id="Group_49" data-name="Group 49" transform="translate(0.173)">
    <path id="Path_15" data-name="Path 15" class="cls-1" d="M505.363,125.514h3.081v3.1h-3.081v7.491a3.079,3.079,0,0,0,3.081,3.081v2.867c-1.989,0-4.042-.144-5.641-1.743a5.941,5.941,0,0,1-1.743-4.208V118.8h4.3v6.714Z" transform="translate(-501.06 -118.795)"/>
    <path id="Path_16" data-name="Path 16" class="cls-1" d="M550.569,142.039V131.447c0-3.793-4.729-3.793-4.729,0v10.592h-4.3V118.78h4.3v6.95a5.941,5.941,0,0,1,1.648-.232h1.433a5.951,5.951,0,0,1,5.951,5.948v10.592Z" transform="translate(-531.672 -118.78)"/>
    <path id="Path_17" data-name="Path 17" class="cls-1" d="M604.27,152.288a5.951,5.951,0,0,1,5.951-5.948h1.433a5.951,5.951,0,0,1,5.948,5.948v2.867h-9.03v1.775c0,2.852,3.342,4.234,4.532,1.092h4.4a5.954,5.954,0,0,1-5.848,4.858h-1.433a5.951,5.951,0,0,1-5.951-5.951v-4.642Zm4.3,0H613.3c0-3.791-4.729-3.793-4.729,0Z" transform="translate(-579.11 -139.622)"/>
  </g>
</svg>
