<svg xmlns="http://www.w3.org/2000/svg" width="80" height="80" viewBox="0 0 80 80"><g transform="translate(1160.501 -447.542)"><path d="M-1081.834,447.542h-77.333a1.333,1.333,0,0,0-1.333,1.333,14.684,14.684,0,0,0,14.667,14.667h17.333v5.333h-2.667a1.334,1.334,0,0,0-1.333,1.333v6.667h-5.893a6.667,6.667,0,0,0-6.627,5.931l-4.148,37.333a6.667,6.667,0,0,0,5.89,7.362,6.7,6.7,0,0,0,.737.041h44.083a6.667,6.667,0,0,0,6.667-6.666,6.694,6.694,0,0,0-.041-.737l-4.148-37.333a6.667,6.667,0,0,0-6.627-5.931h-5.893v-6.667a1.333,1.333,0,0,0-1.333-1.333h-2.667v-5.333h17.333a14.684,14.684,0,0,0,14.667-14.667A1.333,1.333,0,0,0-1081.834,447.542Zm-20.773,32a4,4,0,0,1,3.973,3.557l4.149,37.333a4.009,4.009,0,0,1-.995,3.109,3.951,3.951,0,0,1-2.98,1.333h-44.083a3.951,3.951,0,0,1-2.98-1.333,4.009,4.009,0,0,1-1-3.111l4.149-37.333a4,4,0,0,1,3.975-3.556Zm-8.56-8v5.333h-2.667v-2.667h-2.667v2.667h-2.667v-2.667h-2.667v2.667h-2.667v-2.667h-2.667v2.667h-2.667v-5.333Zm-14.667-2.667v-5.333h10.667v5.333Zm30.667-8h-50.667a12.016,12.016,0,0,1-11.925-10.667h74.517A12.016,12.016,0,0,1-1095.167,460.875Z" fill="#eaad7f"/><path d="M-1060.5,582.875a16,16,0,0,0-16,16,16,16,0,0,0,16,16,16,16,0,0,0,16-16A16.017,16.017,0,0,0-1060.5,582.875Zm1.333,16a1.333,1.333,0,0,1-1.333,1.333,1.333,1.333,0,0,1-1.333-1.333,1.333,1.333,0,0,1,1.333-1.333A1.334,1.334,0,0,1-1059.167,598.875Zm11.932-1.333h-9.51a4,4,0,0,0-5.1-2.438,4,4,0,0,0-2.438,5.1,4,4,0,0,0,5.1,2.438,4,4,0,0,0,2.438-2.438h9.51a13.333,13.333,0,0,1-14.6,11.933,13.334,13.334,0,0,1-11.933-14.6,13.334,13.334,0,0,1,14.6-11.933A13.334,13.334,0,0,1-1047.236,597.542Z" transform="translate(-60 -96.666)" fill="#eaad7f"/><rect width="16" height="2.667" transform="translate(-1149.834 455.542)" fill="#eaad7f"/></g></svg>