<svg xmlns="http://www.w3.org/2000/svg" width="86.178" height="103.5" viewBox="0 0 86.178 103.5">
  <defs>
    <style>
      .cls-1 {
        fill: #23d16a;
      }
    </style>
  </defs>
  <path id="Path_123" data-name="Path 123" class="cls-1" d="M-2010.8,515.675c-1.072-5.674-2.733-11.262-2.152-17.141a2.713,2.713,0,0,0-.133-.895,3.413,3.413,0,0,0-4.877-2.215,6.515,6.515,0,0,0-1.186.765,1.012,1.012,0,0,1-1.419,0c-1.187-.813-2.434-1.539-3.657-2.3h-1.617c-1.218.761-2.456,1.493-3.644,2.3a1.067,1.067,0,0,1-1.42.016c-1.179-.817-2.416-1.548-3.63-2.314h-1.617c-1.25.774-2.52,1.518-3.74,2.336a1.011,1.011,0,0,1-1.339-.007c-1.178-.814-2.406-1.557-3.614-2.328h-1.618c-1.276.783-2.568,1.543-3.822,2.362a.974.974,0,0,1-1.252,0c-1.251-.821-2.546-1.578-3.823-2.36h-1.617c-1.235.791-2.451,1.616-3.719,2.35a1.338,1.338,0,0,1-1.126,0c-1.31-.736-2.571-1.559-3.849-2.35h-1.617c-1.186.748-2.4,1.45-3.543,2.262a1.17,1.17,0,0,1-1.591-.02c-1.152-.8-2.37-1.5-3.56-2.241h-1.618a26.947,26.947,0,0,0-2.889,1.81,1.944,1.944,0,0,1-2.87.052,3.169,3.169,0,0,0-3.7-.277,3.433,3.433,0,0,0-1.824,3.26c-.007,2.089.007,4.177-.009,6.266a6.147,6.147,0,0,1-.148,1.4,185.22,185.22,0,0,0-4.4,26.77,153.622,153.622,0,0,0,2.176,41.232c1.087,6.107,3.017,12.1,2.392,18.43a2.6,2.6,0,0,0,.144.893,3.151,3.151,0,0,0,3.181,2.447,6.751,6.751,0,0,0,2.67-.976c.668-.387,1.123-.534,1.773-.009a26.227,26.227,0,0,0,2.344,1.578,3.388,3.388,0,0,0,3.9.021,27.615,27.615,0,0,0,2.347-1.574,1.21,1.21,0,0,1,1.766-.025,24.9,24.9,0,0,0,2.343,1.58,3.392,3.392,0,0,0,3.9.019c.855-.537,1.714-1.074,2.521-1.678a1.013,1.013,0,0,1,1.422-.026c.778.587,1.614,1.1,2.429,1.635a3.461,3.461,0,0,0,4.072.017c.849-.547,1.7-1.093,2.515-1.689a.919.919,0,0,1,1.259-.015c.787.576,1.621,1.088,2.428,1.636a3.513,3.513,0,0,0,4.243.01c.841-.559,1.657-1.161,2.533-1.659a1.246,1.246,0,0,1,1.046-.006c.877.5,1.7,1.088,2.535,1.656a3.5,3.5,0,0,0,4.241,0c.841-.56,1.658-1.161,2.534-1.658a1.243,1.243,0,0,1,1.043,0c.877.5,1.7,1.087,2.535,1.656a3.5,3.5,0,0,0,4.241.006,13.723,13.723,0,0,0,1.669-1.134,1.849,1.849,0,0,1,2.779-.014,3.18,3.18,0,0,0,3.614.315,3.384,3.384,0,0,0,1.9-3.211c.024-2.122,0-4.245.016-6.367a6.657,6.657,0,0,1,.18-1.494,173.291,173.291,0,0,0,4.841-34.338A154.814,154.814,0,0,0-2010.8,515.675Zm-.5,32.175q-.039,2.264-.147,4.52a12.008,12.008,0,0,0-11.8-9.9,12.013,12.013,0,0,0-1.974.166c0-.055,0-.11,0-.166a11.941,11.941,0,0,0-.572-3.655,11.981,11.981,0,0,0,2.541.274,12.01,12.01,0,0,0,11.25-7.844A143.81,143.81,0,0,1-2011.3,547.85Zm-9.573,23.82a9.3,9.3,0,0,1-9.29,9.29,9.286,9.286,0,0,1-7.657-4.038,9.233,9.233,0,0,1-1.559-4.1,9.338,9.338,0,0,0,.074-1.149,9.34,9.34,0,0,0-.074-1.149,9.233,9.233,0,0,1,1.559-4.1,9.312,9.312,0,0,1,5.754-3.841,9.292,9.292,0,0,1,1.9-.2,9.249,9.249,0,0,1,2.973.491,9.207,9.207,0,0,0,.966.388,9.35,9.35,0,0,1,3.723,3.165A9.236,9.236,0,0,1-2020.872,571.67Zm-56.254-50.583a9.3,9.3,0,0,1,9.29-9.29,9.3,9.3,0,0,1,9.29,9.29,9.236,9.236,0,0,1-1.365,4.842,11.983,11.983,0,0,0-7.96,4.447c-.265,0-.527-.015-.786-.038a12.039,12.039,0,0,0-8.226-7.146A9.3,9.3,0,0,1-2077.126,521.087Zm21.335,4.452a9.3,9.3,0,0,1,9.29-9.29,9.3,9.3,0,0,1,9.29,9.29,9.233,9.233,0,0,1-1.489,5.035,11.986,11.986,0,0,0-7.744,4.253l-.057,0c-.129,0-.256,0-.384-.01a12.031,12.031,0,0,0-8.884-8.662C-2055.782,525.953-2055.791,525.747-2055.791,525.539Zm23.25,1.558a9.3,9.3,0,0,1,9.29-9.29,9.3,9.3,0,0,1,9.29,9.29,9.3,9.3,0,0,1-9.29,9.29,9.231,9.231,0,0,1-4.354-1.087,9.357,9.357,0,0,1-3.392-3.083A9.235,9.235,0,0,1-2032.541,527.1Zm4.621,15.372a9.366,9.366,0,0,1-.051.97,12.041,12.041,0,0,0-6.889,8.018,9.27,9.27,0,0,1-2.351.3,9.238,9.238,0,0,1-5.2-1.6,12.064,12.064,0,0,0-3.365-4.1,9.241,9.241,0,0,1-.725-3.6,9.233,9.233,0,0,1,1.489-5.035,9.288,9.288,0,0,1,7.744-4.254h.057a9.232,9.232,0,0,1,4.354,1.087,9.359,9.359,0,0,1,3.393,3.083A9.237,9.237,0,0,1-2027.92,542.469Zm-5.836,17.762a12.026,12.026,0,0,0-5.623,3.78,12.079,12.079,0,0,0-3.237-2.726,11.916,11.916,0,0,0,1.477-5.758,12.006,12.006,0,0,0-.133-1.776,11.939,11.939,0,0,0,4.062.709,12.014,12.014,0,0,0,1.974-.165c0,.055,0,.11,0,.165A11.913,11.913,0,0,0-2033.756,560.231Zm-7.182,16.692a9.286,9.286,0,0,1-7.657,4.038,9.254,9.254,0,0,1-6.411-2.577,9.351,9.351,0,0,1-1.662-2.126,9.231,9.231,0,0,1-1.217-4.588A9.23,9.23,0,0,1-2056.62,567a9.36,9.36,0,0,1,1.915-2.317q.175-.153.359-.3a9.291,9.291,0,0,1,2.337-1.35,9.237,9.237,0,0,1,3.414-.653,9.317,9.317,0,0,1,1.575.136,9.227,9.227,0,0,1,2.838.981,9.355,9.355,0,0,1,3.244,2.921,11.915,11.915,0,0,0-1.214,5.253A11.916,11.916,0,0,0-2040.938,576.923Zm-28.946-13.477a9.308,9.308,0,0,1,5.583-3.574,12.055,12.055,0,0,0,5.192,6.041,11.915,11.915,0,0,0-1.476,5.758,11.913,11.913,0,0,0,1.58,5.937,9.236,9.236,0,0,1-3.414.653,9.235,9.235,0,0,1-3.608-.73,11.925,11.925,0,0,0,.893-4.536A11.977,11.977,0,0,0-2069.885,563.446Zm2.1-25.613a9.235,9.235,0,0,1,1.365-4.842,9.293,9.293,0,0,1,7.925-4.448h.035c.117,0,.233,0,.349.009a9.224,9.224,0,0,1,3.075.661,9.342,9.342,0,0,1,5.073,4.946,9.216,9.216,0,0,1,.736,3.055c.013.2.023.411.023.619a9.245,9.245,0,0,1-2.078,5.847,12.04,12.04,0,0,0-1.852-.143,11.936,11.936,0,0,0-7.814,2.907,12.044,12.044,0,0,0-6.786-7.643A9.254,9.254,0,0,1-2067.781,537.833Zm23.941,17.694a9.232,9.232,0,0,1-1.266,4.673,11.945,11.945,0,0,0-3.49-.52,11.916,11.916,0,0,0-5.057,1.122,12.016,12.016,0,0,0-2.356,1.454,12.13,12.13,0,0,0-1.534,1.443,9.353,9.353,0,0,1-3.865-3.964,9.223,9.223,0,0,1-.9-2.754c-.034-.215-.059-.432-.078-.652-.023-.265-.037-.533-.037-.8a9.24,9.24,0,0,1,1.965-5.7c.037-.048.074-.1.113-.144a9.34,9.34,0,0,1,3.655-2.734,9.219,9.219,0,0,0,1.755-.533,9.308,9.308,0,0,1,1.8-.177,9.261,9.261,0,0,1,2.752.416,9.247,9.247,0,0,1,2.449,1.18,9.344,9.344,0,0,1,3.364,4.1A9.238,9.238,0,0,1-2043.84,555.527Zm-31.352-28.775a9.352,9.352,0,0,1,2.776,2.414,9.257,9.257,0,0,1,1.69,3.558,9.273,9.273,0,0,1,.244,2.106,9.244,9.244,0,0,1-.531,3.092,9.272,9.272,0,0,1-1.434,2.611,9.277,9.277,0,0,1-7.325,3.587,9.248,9.248,0,0,1-2.943-.481,9.3,9.3,0,0,1-6.347-8.81,9.3,9.3,0,0,1,9.29-9.29c.277,0,.551.014.822.038A9.219,9.219,0,0,1-2075.192,526.752Zm-6.013,19.98a12.086,12.086,0,0,0,1.434.089,11.986,11.986,0,0,0,9.9-5.23q.193-.283.372-.576a9.291,9.291,0,0,1,3.216,1.863,9.36,9.36,0,0,0,1.636,1.9,9.226,9.226,0,0,1,1.444,4.076c.006.054.009.109.014.163a11.916,11.916,0,0,0-1.928,6.508,9.277,9.277,0,0,1-7.326,3.587,9.3,9.3,0,0,1-9.29-9.29A9.249,9.249,0,0,1-2081.205,546.731Zm10.03,19.136a9.273,9.273,0,0,1,3.34,7.128,9.24,9.24,0,0,1-.535,3.1,9.271,9.271,0,0,1-1.291,2.421,9.282,9.282,0,0,1-7.464,3.766,9.3,9.3,0,0,1-9.29-9.29,9.3,9.3,0,0,1,9.29-9.29,9.241,9.241,0,0,1,3.609.73A9.3,9.3,0,0,1-2071.176,565.867Zm3.841,14.036a11.917,11.917,0,0,0,4.914,1.057,11.917,11.917,0,0,0,5.058-1.122,11.963,11.963,0,0,0,7.678,3.771q-10.948,0-21.9.012A12.074,12.074,0,0,0-2067.334,579.9Zm27.955-.573a11.978,11.978,0,0,0,8.118,4.278h-16.245A11.977,11.977,0,0,0-2039.379,579.33Zm9.217-19.65c-.252,0-.5.01-.75.026a9.237,9.237,0,0,1-1.628-5.246,9.36,9.36,0,0,1,.051-.97,9.23,9.23,0,0,1,1.45-4.083,9.353,9.353,0,0,0,1.619-1.883,9.283,9.283,0,0,1,3.82-2.052,9.283,9.283,0,0,1,2.35-.3,9.3,9.3,0,0,1,9.29,9.29,9.306,9.306,0,0,1-7.387,9.094A11.959,11.959,0,0,0-2030.162,559.68Zm-55.213-61.143c.547.356.981.646,1.423.925a3.448,3.448,0,0,0,3.985-.009c.877-.566,1.715-1.2,2.623-1.705a1.343,1.343,0,0,1,1.117,0c.88.488,1.7,1.091,2.536,1.651a3.472,3.472,0,0,0,4.152.006c1.01-.668,2.018-1.338,3.1-2.056.969.644,1.953,1.274,2.913,1.94a3.622,3.622,0,0,0,4.5.018c.966-.669,1.956-1.3,2.943-1.958,1.05.7,2.061,1.362,3.068,2.035a3.5,3.5,0,0,0,4.237-.016c1-.677,2.014-1.335,3.05-2.02,1.032.687,2.041,1.355,3.047,2.029a3.506,3.506,0,0,0,4.239,0c.837-.565,1.661-1.156,2.537-1.652a1.227,1.227,0,0,1,1.031-.013c.9.516,1.748,1.137,2.621,1.709a3.451,3.451,0,0,0,4.068.018c.762-.5,1.548-.963,2.261-1.523a1.2,1.2,0,0,1,1.758-.027,21.591,21.591,0,0,0,1.921,1.3c1.79,1.2,2.961,1.208,4.742.035.3-.2.611-.39,1.039-.663v5.587h-68.911Zm-.633,10.016c.061-.259.145-.512.249-.879h.98q33.856,0,67.712-.018c.768,0,1.115.178,1.3.964q1.322,5.752,2.295,11.545a11.98,11.98,0,0,0-9.773-5.057,12.011,12.011,0,0,0-11.437,8.391,12.007,12.007,0,0,0-11.813-9.949,11.98,11.98,0,0,0-9.646,4.878,12.009,12.009,0,0,0-11.689-9.33,12,12,0,0,0-11.99,11.991,12.012,12.012,0,0,0,.13,1.754l-.075,0a11.98,11.98,0,0,0-9.67,4.911A172.82,172.82,0,0,1-2086.009,508.552Zm-4.513,34.778c.018-1.01.05-2.018.088-3.026a12.056,12.056,0,0,0,6.589,5.8,11.951,11.951,0,0,0-.592,3.717,12.008,12.008,0,0,0,7.694,11.191c-.127,0-.255-.01-.383-.01a12.01,12.01,0,0,0-11.478,8.525A150.669,150.669,0,0,1-2090.522,543.331Zm4.411,39.035c-.151-.657-.3-1.315-.44-1.973a12.073,12.073,0,0,0,3.9,3.241l-1.9,0C-2085.571,583.637-2085.9,583.3-2086.111,582.365Zm69.675,10.319c-.506-.3-.953-.558-1.385-.837a3.454,3.454,0,0,0-4.068.007c-.872.573-1.718,1.19-2.623,1.705a1.223,1.223,0,0,1-1.03,0c-.9-.516-1.752-1.132-2.623-1.706a3.465,3.465,0,0,0-4.152.045c-.782.526-1.584,1.025-2.341,1.584a1.012,1.012,0,0,1-1.417.013c-.772-.594-1.613-1.1-2.429-1.635a3.472,3.472,0,0,0-4.153.029c-.811.544-1.644,1.057-2.427,1.638a.956.956,0,0,1-1.325-.025c-.783-.581-1.615-1.1-2.43-1.633a3.48,3.48,0,0,0-4.153.01c-1.01.669-2.022,1.832-3.045,1.843s-2.047-1.125-3.048-1.794a3.575,3.575,0,0,0-4.411.052c-.412.291-.841.559-1.262.837-1.691,1.118-1.691,1.118-3.408-.036-3.188-2.142-3.644-2.143-6.847-.027-1.787,1.181-1.787,1.18-3.579-.024-.307-.207-.628-.4-.924-.617a3.716,3.716,0,0,0-4.917.019c-.258.2-.555.338-.938.567v-5.578h68.934Zm.623-9.955c-.061.259-.144.512-.248.879h-13a12.005,12.005,0,0,0,10.893-11.938,11.916,11.916,0,0,0-1.484-5.771,12.042,12.042,0,0,0,7.827-7.791A169.9,169.9,0,0,1-2015.813,582.73Z" transform="translate(2093.989 -493.89)"/>
</svg>
