<svg xmlns="http://www.w3.org/2000/svg" width="59.5" height="59.504" viewBox="0 0 59.5 59.504">
  <defs>
    <style>
      .cls-1 {
        fill: #b7b7b7;
      }
    </style>
  </defs>
  <path id="Path_1531" data-name="Path 1531" class="cls-1" d="M1480.9,1922.172a29.711,29.711,0,0,0-19.2,7.06c-.013.01-.017.025-.029.037s-.029.015-.04.026a1.014,1.014,0,0,0-.1.15.724.724,0,0,0-.185.4,1.184,1.184,0,0,0-.042.212,1.072,1.072,0,0,0,.024.218,1.2,1.2,0,0,0,.042.211,1.17,1.17,0,0,0,.114.2,1.147,1.147,0,0,0,.087.157c.01.012.025.017.037.028s.015.029.026.041l6.733,6.733-1.3,1.946-7.068-7.068c-.01-.011-.025-.014-.037-.024s-.015-.024-.026-.035a1,1,0,0,0-.161-.091,1.083,1.083,0,0,0-.2-.114,1.1,1.1,0,0,0-.215-.043,1.264,1.264,0,0,0-.214-.025,1.054,1.054,0,0,0-.215.042,1.113,1.113,0,0,0-.208.056,1.178,1.178,0,0,0-.191.127,1.043,1.043,0,0,0-.152.1c-.012.011-.014.026-.024.036s-.024.016-.035.028a29.734,29.734,0,0,0,41.924,41.931c.012-.009.016-.024.028-.034s.024-.013.034-.023a1.063,1.063,0,0,0,.1-.151,1.174,1.174,0,0,0,.128-.193,3.249,3.249,0,0,0,.1-.422,1.189,1.189,0,0,0-.026-.216,1.084,1.084,0,0,0-.041-.214,1.246,1.246,0,0,0-.115-.2,1.09,1.09,0,0,0-.09-.16c-.01-.012-.024-.016-.033-.027s-.014-.025-.024-.035l-4.573-4.573a3.4,3.4,0,0,0,.049-.432v-2.766l6.15,6.151c.012.011.028.015.04.026s.018.027.03.038a1.075,1.075,0,0,0,.211.121.885.885,0,0,0,.114.07,1.12,1.12,0,0,0,.408.08,1.147,1.147,0,0,0,.451-.1,1.187,1.187,0,0,0,.13-.087,1.109,1.109,0,0,0,.229-.151c.012-.013.016-.029.027-.041s.027-.015.037-.028a29.75,29.75,0,0,0-22.708-48.977Zm12.592,45.661a1.145,1.145,0,0,1-1.145,1.145H1469.45a1.145,1.145,0,0,1-1.144-1.145V1942.65h25.183Zm-24.19-27.472,3.053-4.579h17.09l3.052,4.579Zm19.611-6.868h-16.026v-1.145a1.145,1.145,0,0,1,1.144-1.145h13.736a1.145,1.145,0,0,1,1.145,1.145Zm-35.486,18.44a27.368,27.368,0,0,1,5.86-16.881l6.732,6.732v26.048a3.434,3.434,0,0,0,3.434,3.434h22.894a3.4,3.4,0,0,0,2.274-.88l3.16,3.159a27.414,27.414,0,0,1-44.353-21.613Zm49.2,16.748-6.851-6.851v-20.325a.967.967,0,0,0-.021-.1,1.219,1.219,0,0,0-.133-.437.864.864,0,0,0-.039-.1l-4.386-6.576v-1.946a3.434,3.434,0,0,0-3.434-3.434h-13.736a3.434,3.434,0,0,0-3.434,3.434v1.946l-.942,1.413-5.495-5.494a27.421,27.421,0,0,1,38.471,38.468Z" transform="translate(-1451.154 -1922.172)"/>
</svg>
