<svg xmlns="http://www.w3.org/2000/svg" width="84" height="83.978" viewBox="0 0 84 83.978"><path d="M300.867,883.068a19.8,19.8,0,0,0-11.378-5.371l-1.379-.166-.388-1.333a23.407,23.407,0,0,0-8.623-12.379A23.622,23.622,0,0,0,242.366,876.2l-.388,1.333-1.378.166a19.941,19.941,0,0,0-.924,39.462l1.753.3v24.128A1.573,1.573,0,0,0,243,943.154h44.088a1.573,1.573,0,0,0,1.572-1.572V917.455l1.753-.3a19.942,19.942,0,0,0,10.454-34.091Zm-15.35,47.493v9.451H244.572V928.458h40.945Zm1.576-16.268a1.574,1.574,0,0,0-1.576,1.572v9.451H273.964v-7.348h-3.143v7.348H259.268v-7.348h-3.143v7.348H244.572v-9.451A1.573,1.573,0,0,0,243,914.293a16.8,16.8,0,0,1-.01-33.6h.061l.233.007h.008a1.589,1.589,0,0,0,1.569-1.322,20.475,20.475,0,0,1,20.161-17.058,20.491,20.491,0,0,1,20.206,17.065,1.577,1.577,0,0,0,1.558,1.315h.015l.234-.007h.061a16.8,16.8,0,0,1,0,33.6Z" transform="translate(-223.046 -859.176)" fill="#eaad7f"/></svg>