<svg xmlns="http://www.w3.org/2000/svg" width="43.182" height="33.959" viewBox="0 0 43.182 33.959">
  <g id="Group_246" data-name="Group 246" transform="translate(451.417 -12.383)">
    <path id="Path_1542" data-name="Path 1542" d="M-306.463,68.278a1.142,1.142,0,0,0-1.287,1.131h0a9.152,9.152,0,0,1,9.149,9.155h0a1.142,1.142,0,0,0,1.13-1.288A10.384,10.384,0,0,0-306.463,68.278Z" transform="translate(-126.668 -49.273)" fill="#fff"/>
    <path id="Path_1543" data-name="Path 1543" d="M-409.889,36.192l-7.571-2.968a2.631,2.631,0,0,0-.414-.124,17.006,17.006,0,0,0-10.366-19.545,17,17,0,0,0-22.005,9.61,17,17,0,0,0,9.61,22.006,17.006,17.006,0,0,0,20.888-7.291,2.609,2.609,0,0,0,.388.191l7.57,2.968a2.6,2.6,0,0,0,3.374-1.473h0A2.6,2.6,0,0,0-409.889,36.192Zm-13.147-2.359a12.26,12.26,0,0,1-15.872,6.931,12.26,12.26,0,0,1-6.931-15.872,12.26,12.26,0,0,1,15.872-6.931A12.26,12.26,0,0,1-423.036,33.833Z" transform="translate(0)" fill="#fff"/>
  </g>
</svg>
