<svg id="shopping-cart" xmlns="http://www.w3.org/2000/svg" width="32.571" height="32.57" viewBox="0 0 32.571 32.57">
  <path id="Path_1544" data-name="Path 1544" d="M-1031.616-131.5a3.267,3.267,0,0,0-3.257,3.257,3.267,3.267,0,0,0,3.257,3.257,3.266,3.266,0,0,0,3.257-3.257A3.266,3.266,0,0,0-1031.616-131.5Zm-9.771-26.056v3.257h3.257l5.862,12.377-2.28,3.908a5.8,5.8,0,0,0-.326,1.629,3.267,3.267,0,0,0,3.257,3.257h19.543v-3.257h-18.891a.35.35,0,0,1-.326-.326v-.163l1.466-2.768h12.051a2.97,2.97,0,0,0,2.768-1.628l5.862-10.586a.9.9,0,0,0,.326-.814,1.539,1.539,0,0,0-1.628-1.628h-24.1l-1.466-3.257Zm26.056,26.056a3.267,3.267,0,0,0-3.257,3.257,3.267,3.267,0,0,0,3.257,3.257,3.267,3.267,0,0,0,3.257-3.257A3.267,3.267,0,0,0-1015.331-131.5Z" transform="translate(1041.387 157.552)" fill="#23d16a"/>
</svg>
